<?xml version="1.0" encoding="UTF-8" standalone="no"?>
<svg width="522px" height="261px" viewBox="0 0 522 261" version="1.1" xmlns="http://www.w3.org/2000/svg" xmlns:xlink="http://www.w3.org/1999/xlink">
    <!-- Generator: Sketch 41 (35326) - http://www.bohemiancoding.com/sketch -->
    <title>Artboard 3 Copy 5</title>
    <desc>Created with Sketch.</desc>
    <defs></defs>
    <g id="ITC" stroke="none" stroke-width="1" fill="none" fill-rule="evenodd">
        <g id="Artboard-3-Copy-5">
            <polygon id="Combined-Shape" fill="#333333" points="380.731445 194.185186 380.731445 149.037725 342.584961 149.037725 342.584961 194.185186 300 194.185186 313 183.917969 313 88.7988281 299 77.9527645 342.584961 77.9527645 342.584961 125.77503 380.731445 125.77503 380.731445 77.9527645 410.235352 77.9527645 410.235352 194.185186"></polygon>
            <g id="Circle-thing" transform="translate(207.000000, 71.000000)">
                <path d="M93.0134742,94.9700931 C93.7001509,94.3120789 94.3638332,93.630258 95.0031946,92.9259565 L99.6611995,97.1194295 C98.9355106,97.9196449 98.1826263,98.6947437 97.4040058,99.4432668 L93.0134742,94.9700931 L93.0134742,94.9700931 Z" id="Path" fill="#387DC7"></path>
                <path d="M0.0417881607,60.8987389 C0.311462529,57.0894262 0.909617394,53.3708496 1.80809553,49.7711663 L8.73283015,51.444433 C7.92315403,54.6742323 7.38509029,58.0117702 7.14432593,61.4313596 L0.0417881607,60.8987389 L0.0417881607,60.8987389 Z M2.84217094e-14,69.5723392 C1.56996332,95.2853172 18.0991458,116.956341 40.9953789,125.993244 L43.5774895,119.353533 C23.2147322,111.302694 8.51531481,92.0258382 7.11005803,69.1537859 L0,69.5723392 L2.84217094e-14,69.5723392 Z M36.7190543,6.98091888 C21.9735219,14.0711314 10.3177873,26.5656225 4.31991753,41.8963247 L10.9728471,44.4444875 C16.3149215,30.8243437 26.6742907,19.7231215 39.7764774,13.4152983 L36.7190543,6.98091888 Z M44.4630567,3.85645888 C50.8694065,1.74264899 57.716783,0.598809693 64.8313175,0.598809693 C82.7955166,0.598809693 99.0564166,7.89149965 110.815001,19.6778625 L105.778902,24.7139615 C95.3091702,14.2164459 80.8287991,7.72092356 64.8313175,7.72092356 C58.4869373,7.72092356 52.3811691,8.74254324 46.6695477,10.6302479 L44.4630567,3.85645888 L44.4630567,3.85645888 Z M49.3720272,128.65521 C54.3266743,129.86485 59.5041021,130.506167 64.8313175,130.506167 C68.554098,130.506167 72.2037291,130.192977 75.7553003,129.591509 L74.5490409,122.571118 C71.3895589,123.105701 68.1429445,123.384053 64.8313175,123.384053 C60.0782108,123.384053 55.4590314,122.810642 51.0391815,121.729222 L49.3720272,128.65521 L49.3720272,128.65521 Z M84.3111015,127.534557 C95.4730126,124.030064 105.336807,117.593711 113,109.127983 L107.706829,104.362687 C100.885021,111.89445 92.1062679,117.620665 82.1729218,120.73898 L84.3111015,127.534557 L84.3111015,127.534557 Z" id="Combined-Shape" fill="#333333"></path>
                <path d="M33.2569191,67.6468958 C33.6707793,74.0915064 35.9809915,80.0200237 39.635419,84.8803109 L34.6984147,88.7434193 C30.2813109,82.9083704 27.490335,75.774141 27,68.015244 L33.2569191,67.6468958 L33.2569191,67.6468958 Z M33.2641215,63.348805 C33.6714251,57.3240035 35.7363483,51.7538017 39.0065469,47.0905435 L33.9719605,43.353664 C30.0141722,48.9434873 27.5110074,55.6360812 27.0138183,62.8800935 L33.2641215,63.348805 Z M42.3549607,88.048842 C45.4632065,91.2299254 49.2252027,93.7694737 53.4237247,95.4502623 L51.1514084,101.29336 C46.1503228,99.3004054 41.6659148,96.2881786 37.9548091,92.5133039 L42.3549607,88.048842 L42.3549607,88.048842 Z M41.6395964,43.8121905 C44.3711713,40.8307027 47.6569675,38.3653375 51.3338131,36.5792667 L48.6432337,30.9169138 C44.2816198,33.0286716 40.3792955,35.940035 37.1266829,39.4605819 L41.6395964,43.8121905 L41.6395964,43.8121905 Z M55.1635038,35.0161102 C58.3740326,33.9422495 61.8099997,33.3605335 65.3818339,33.3605335 C68.121833,33.3605335 70.7818795,33.7028511 73.3215396,34.3470525 L74.894802,28.278639 C71.8524055,27.5045102 68.6651678,27.0930733 65.3818339,27.0930733 C61.1322685,27.0930733 57.0436807,27.7823001 53.2217564,29.0550676 L55.1635038,35.0161102 Z M76.7239251,95.6895145 C73.1963186,97.0177819 69.3739366,97.7444429 65.3818339,97.7444429 C62.6955068,97.7444429 60.0860307,97.4154047 57.5915096,96.7954326 L56.1243863,102.890416 C59.0895578,103.623151 62.1902968,104.011903 65.3818339,104.011903 C70.1560128,104.011903 74.7270152,103.142001 78.9449829,101.552054 L76.7239251,95.6895145 L76.7239251,95.6895145 Z M80.7051675,93.8705885 C83.9027065,92.136699 86.7735964,89.8770356 89.2018676,87.2075676 L93.8598886,91.4010551 C90.9556726,94.5987981 87.5202638,97.3053598 83.6930251,99.3813772 L80.7051675,93.8705885 L80.7051675,93.8705885 Z M77.4506496,35.6992729 C81.5109967,37.3423547 85.1597827,39.7897613 88.1994471,42.8439323 L92.6312213,38.4121581 C89.0079176,34.7743861 84.6609589,31.8579243 79.8245086,29.8969361 L77.4506496,35.6992729 L77.4506496,35.6992729 Z" id="Combined-Shape" fill="#165293"></path>
                <path d="M79.3282767,112.584288 C89.1151186,109.512659 97.5869991,103.47055 103.687417,95.5144611 L103.687417,104.9801 C97.46333,111.158271 89.7843925,115.872793 81.2098749,118.564396 L79.3282767,112.584288 L79.3282767,112.584288 Z" id="Path" fill="#333333"></path>
                <path d="M88.7534972,98.5311239 C85.2328578,101.089357 81.2867205,103.097583 77.0412903,104.429596 L78.9228886,110.409703 C83.8484758,108.863908 88.4248532,106.529222 92.503964,103.553701 L88.7534972,98.5311239 L88.7534972,98.5311239 Z" id="Path" fill="#333333"></path>
                <path d="M34.9352024,37.8782707 C42.3763808,29.8434998 53.0164975,24.8139968 64.8313175,24.8139968 C76.1086773,24.8139968 86.3157781,29.39632 93.6922584,36.8006047 L98.1240289,32.3688342 C89.6133554,23.8303655 77.8393886,18.5465366 64.8313175,18.5465366 C51.2447746,18.5465366 39.0045383,24.3107609 30.4227304,33.5270878 L34.9352024,37.8782707 L34.9352024,37.8782707 Z" id="Path" fill="#387DC7"></path>
                <path d="M35.8042876,94.136694 C43.1932575,101.639413 53.4690718,106.29098 64.8313175,106.29098 C67.1561766,106.29098 69.4355507,106.096235 71.6540169,105.722171 L72.7155261,111.90012 C70.1520203,112.33304 67.5179914,112.55844 64.8313175,112.55844 C51.7547157,112.55844 39.9252558,107.21879 31.4043673,98.6009212 L35.8042876,94.136694 L35.8042876,94.136694 Z" id="Path" fill="#387DC7"></path>
                <path d="M32.352687,90.1481367 C27.1688395,83.3134812 24.0928262,74.7922054 24.0928262,65.5524882 C24.0928262,56.7748994 26.868838,48.645683 31.5908096,41.9948907 L26.5567977,38.2584377 C21.0597899,45.953121 17.825366,55.3750845 17.825366,65.5524882 C17.825366,76.2492999 21.3983547,86.1115954 27.4159743,94.0110169 L32.352687,90.1481367 L32.352687,90.1481367 Z" id="Path" fill="#387DC7"></path>
                <path d="M18.6776014,47.502309 C25.879934,29.2120403 43.7045268,16.2674602 64.5524882,16.2674602 C80.5161455,16.2674602 94.7071295,23.857177 103.713852,35.6250221 L103.713852,26.1511337 C93.6704683,16.1685432 79.8318485,10 64.5524882,10 C41.0332115,10 20.927619,24.6157192 12.8229649,45.2599034 L18.6776014,47.502309 L18.6776014,47.502309 Z" id="Path" fill="#165293"></path>
                <path d="M16.7637845,53.4523776 C15.786577,57.3238174 15.2674602,61.3775297 15.2674602,65.5524882 C15.2674602,92.7718575 37.3331188,114.837516 64.5524882,114.837516 C67.3707311,114.837516 70.1337254,114.600969 72.8226999,114.146646 L73.8842085,120.324592 C70.8501951,120.837773 67.732546,121.104976 64.5524882,121.104976 C33.8716961,121.104976 9,96.2332802 9,65.5524882 C9,60.8704179 9.57922611,56.3236331 10.6699304,51.9798818 L16.7637845,53.4523776 Z" id="Path" fill="#9A9A9A"></path>
                <ellipse id="Oval" fill="#333333" cx="64.5472355" cy="65.5" rx="15.2322867" ry="15.2322867"></ellipse>
            </g>
            <path d="M203.468461,124.223336 L178.514058,124.223336 L178.514058,101.168943 L211.904278,101.168943 C217.33968,91.8466503 224.866653,83.8935236 233.841996,77.9527645 L149,77.9527645 L149,101.220597 L149,193.952765 L232.549175,193.952765 C223.867413,187.924207 216.614708,179.981956 211.40165,170.736602 L178.514058,170.736586 L178.514058,147.439515 L203.28174,147.439515 C202.711354,143.840592 202.415127,140.150414 202.415127,136.391047 C202.415127,132.240929 202.776135,128.175129 203.468461,124.223336 Z" id="Combined-Shape" fill="#393939"></path>
            <polygon id="Path" fill="#393939" points="114.276367 101.863897 114.276367 194.347296 84.6914062 194.347296 84.6914062 101.863897 30 101.863897 30 77.9527645 149.291992 77.9527645 149.291992 101.863897"></polygon>
            <path d="M258.372861,210.243907 C258.350957,209.614088 258.646031,209.070175 259.25809,208.612153 L259.253035,208.46681 C259.241241,208.127677 259.594096,207.508979 260.311611,206.610699 C261.029126,205.712418 261.432756,205.164699 261.522512,204.967524 C262.562063,204.300485 263.24901,203.912602 263.583376,203.803864 C263.972728,203.887225 264.239773,203.926367 264.384516,203.921291 L264.529259,203.916216 C265.916654,203.528019 267.522557,203.520214 269.347016,203.892799 C271.171476,204.265384 272.464921,204.996125 273.227391,206.085043 C273.638647,206.798222 274.058321,207.753626 274.486425,208.951282 C275.12437,210.626647 275.456816,211.851893 275.483774,212.627055 C275.817067,213.876542 275.881627,215.038422 275.677454,216.112729 L275.630355,216.841978 C275.637095,217.035768 275.523216,217.233785 275.288716,217.436035 C275.054216,217.638285 274.779743,217.732795 274.465289,217.719568 C274.150836,217.706341 273.877627,217.837186 273.645654,218.112107 C273.413681,218.387028 272.923781,218.537598 272.175939,218.563821 C271.428097,218.590045 271.022476,218.385991 270.959064,217.951654 C270.812636,217.908282 270.577565,217.746754 270.253844,217.467065 C269.930124,217.187376 269.765739,216.974863 269.760684,216.82952 L269.381136,216.333512 C269.377766,216.236616 269.276218,216.094659 269.076487,215.907636 C268.611928,215.050805 268.419476,214.37847 268.499123,213.89061 C268.696556,212.622512 268.745339,211.941718 268.645474,211.848206 C268.620201,211.121492 268.353693,210.403247 267.845941,209.693451 C267.796008,209.646695 267.710312,209.613321 267.58885,209.593326 C267.467388,209.573332 267.309321,209.542495 267.114645,209.500815 C267.006355,209.165065 266.903964,208.998885 266.807468,209.002268 C266.473102,209.111006 266.120515,209.390153 265.749696,209.839716 C265.139935,211.75286 264.773639,213.026859 264.650799,213.661754 L264.370733,218.109916 L264.486988,221.452786 C264.644138,223.193517 264.874193,224.252582 265.177159,224.630012 C265.183898,224.823803 265.292187,225.159547 265.502027,225.637256 C265.572178,226.265384 266.117524,227.361899 267.138082,228.926834 L267.515103,229.350172 C267.77993,230.019979 268.201825,230.344727 268.780799,230.324425 C269.359774,230.304124 270.156388,229.597106 271.170666,228.203352 C271.117363,228.059701 271.410752,227.467342 272.050841,226.426256 C272.694299,225.482065 273.7431,225.081494 275.197276,225.224529 C275.827868,225.299431 276.154111,225.651786 276.176014,226.281605 C276.239426,226.715942 276.132593,227.811073 275.855512,229.56703 C275.389882,230.068425 275.165495,230.561353 275.182343,231.045829 C274.874935,231.929729 274.722919,232.42012 274.726288,232.517015 C274.581545,232.522091 274.43933,232.599836 274.299641,232.750255 L273.963057,233.489654 C273.770065,233.496422 273.652817,233.597545 273.611308,233.793027 C273.102485,234.441457 272.751582,234.76905 272.558591,234.775817 C272.418902,234.926236 272.035452,235.01244 271.408229,235.034434 C270.504998,235.45416 269.836277,235.671633 269.402046,235.686859 L268.174258,235.802672 L267.368063,235.539902 L266.714193,235.490071 C266.126794,235.268135 265.676717,235.174778 265.363948,235.209999 C265.051179,235.24522 264.821162,235.229032 264.673892,235.161436 C264.526621,235.09384 264.328999,234.967379 264.08102,234.782047 C263.485197,234.317873 263.102857,234.08875 262.933989,234.094671 C262.765122,234.100593 262.482646,233.96498 262.086554,233.687829 C261.697201,233.604468 261.377698,233.445901 261.128034,233.212122 L260.813275,232.495562 C260.897977,232.153045 260.842991,231.960949 260.648314,231.919268 C260.021092,231.941262 259.655026,231.832834 259.550106,231.593979 L259.095659,231.027837 C259.08218,230.640256 258.871501,230.13833 258.463615,229.522046 L257.504175,226.93634 C257.40431,226.842828 257.398413,226.673264 257.486485,226.427642 L257.440994,225.119563 L256.375409,219.481671 L256.340027,218.464276 C256.718658,216.850277 256.907128,216.019067 256.905444,215.970619 C256.820129,214.906463 257.028511,213.95329 257.530595,213.11107 C257.498583,212.190565 257.779335,211.234853 258.372861,210.243907 L258.372861,210.243907 L258.372861,210.243907 Z M291.38436,211.923976 C290.97923,209.997913 290.007241,209.134636 288.468363,209.334117 C287.601586,209.413018 286.873973,210.020604 286.285502,211.156893 C285.47601,212.883013 285.178333,215.088347 285.392462,217.772961 C285.606591,220.457575 285.866973,222.388684 286.173615,223.566346 C286.480258,224.744008 286.98647,225.757009 287.692268,226.605381 C288.101839,227.270113 288.691756,227.564716 289.462038,227.489199 C290.812979,227.441828 291.762452,226.268644 292.310486,223.969612 L292.828804,222.205204 C293.061619,221.954506 293.101442,221.71058 292.948274,221.473417 C293.388631,220.245308 293.604288,218.80682 293.595251,217.157909 C293.100978,216.835693 292.800544,216.530939 292.693939,216.243637 C292.375809,215.430178 292.211692,214.878114 292.201583,214.587429 C291.855424,214.357033 291.646429,213.903555 291.574593,213.22698 C291.502758,212.550405 291.439347,212.116075 291.38436,211.923976 L291.38436,211.923976 L291.38436,211.923976 Z M278.377944,219.219462 L278.538539,215.503086 C278.76002,212.148357 279.673805,209.254462 281.279923,206.821314 C282.851273,204.777439 285.131755,203.678847 288.121439,203.525506 L288.555668,203.51028 C291.354045,203.412154 293.401487,203.946684 294.698053,205.113887 C296.086061,206.132364 297.127625,207.259985 297.822778,208.496784 C298.51793,209.733582 298.972105,210.63927 299.185315,211.213875 C299.398524,211.788479 299.548627,212.63207 299.635626,213.744674 C299.804571,215.824538 299.435748,217.025868 298.529147,217.348698 C299.364679,221.927538 299.081783,225.599659 297.68045,228.365173 C297.236723,229.496387 296.579259,230.732091 295.708041,232.072322 C295.062898,232.968065 293.873567,233.494829 292.140013,233.65263 C290.403089,233.713536 288.891995,233.669511 287.606687,233.520554 C286.321378,233.371597 284.888667,232.803384 283.308511,231.815898 C281.728354,230.828413 280.583402,229.158725 279.873622,226.806785 C279.118964,224.553432 278.620409,222.024349 278.377944,219.219462 L278.377944,219.219462 L278.377944,219.219462 Z M333.500881,227.472916 C333.487402,227.085335 333.281356,226.716639 332.882736,226.366816 C332.484117,226.016994 332.276807,225.611962 332.260801,225.15171 C332.244795,224.691457 332.121764,223.931802 331.891706,222.872721 C331.981463,222.675547 331.932909,221.973913 331.746044,220.767798 C331.790922,220.669211 331.75443,219.967154 331.636567,218.661605 C331.518705,217.356057 331.442083,216.1946 331.406701,215.1772 L330.728478,216.510657 C329.315964,220.34371 328.613087,222.357102 328.619826,222.550893 L327.132191,227.696236 L326.758617,229.455569 C326.41644,230.728742 326.388717,232.015123 326.675448,233.314749 C326.787107,233.747394 326.296518,234.225404 325.203665,234.748792 C324.914178,234.758943 324.185416,234.63898 323.017357,234.388898 C322.631374,234.402432 322.25788,234.427656 321.896863,234.464568 C321.535847,234.501481 320.525873,234.282239 318.866911,233.806838 C318.860172,233.613047 318.459873,233.214783 317.666004,232.612033 L317.274508,227.605341 C317.237441,226.539493 317.324899,224.887223 317.536883,222.648481 L317.473701,220.831704 L317.679787,218.423407 L317.884954,213.905112 L317.834409,212.45169 C316.661449,216.227837 315.877242,218.680635 315.481762,219.810157 C315.501981,220.391528 315.039497,222.372238 314.094299,225.752344 C313.22599,229.954369 312.909398,232.657553 313.14451,233.861976 C313.15462,234.152662 313.07819,234.385745 312.915219,234.561233 C312.752249,234.736722 312.338931,235.005871 311.675255,235.36869 C310.613801,235.40591 308.98994,235.244575 306.803621,234.884678 L305.480717,234.348989 C305.041431,234.218872 304.635236,233.651044 304.262119,232.645486 C303.889002,231.639929 303.665686,230.774652 303.592165,230.049629 C303.390749,229.814158 303.27488,229.260403 303.244552,228.388345 L303.141854,227.51883 C302.623839,222.346776 302.331139,218.79185 302.263745,216.853945 C302.350132,216.559875 302.381531,216.073715 302.357943,215.395448 L302.287179,213.360657 C302.256852,212.4886 302.277567,211.347983 302.349326,209.938772 C302.421085,208.529561 302.446013,207.510062 302.42411,206.880242 L302.268338,204.484634 C302.434372,203.702705 303.430714,203.182708 305.257395,202.924628 C306.077609,202.895867 306.782247,203.016676 307.371331,203.28706 C308.358192,203.883043 308.999458,204.612399 309.295149,205.475152 C309.590839,206.337904 309.786394,207.446685 309.881817,208.801526 C309.977241,210.156368 310.016835,211.29487 310.000599,212.217067 C310.043333,214.834931 310.227975,216.671684 310.554529,217.727381 C310.823798,217.135858 311.174394,216.104939 311.606327,214.634592 C311.699453,214.534313 312.1614,213.232706 312.992183,210.729732 L314.352766,206.098161 C315.410237,204.557373 315.998009,203.74854 316.116102,203.671639 C316.234194,203.594738 316.606004,203.521068 317.231541,203.450627 C317.953575,203.376802 318.792157,203.529294 319.747312,203.908108 C320.702467,204.286922 321.216644,204.487169 321.289858,204.508855 C321.363072,204.530542 321.79408,204.770084 322.582895,205.227492 C322.930739,205.506335 323.263721,206.052477 323.581851,206.865936 C323.899981,207.679395 324.06831,208.352576 324.086843,208.8855 C324.250733,210.820022 324.334362,211.835715 324.337732,211.93261 L324.368059,212.804663 C324.372654,215.714904 324.500624,217.311115 324.751973,217.593341 C325.045902,216.32186 325.640797,214.676049 326.536676,212.65586 L327.194681,210.741035 L328.538493,207.710765 C328.48519,207.567114 328.726962,206.879553 329.263815,205.64806 L329.909185,203.369879 C330.291185,201.852776 331.456086,200.623532 333.403922,199.68211 C333.789905,199.668575 334.715868,199.902889 336.181838,200.385058 C337.146796,200.351221 338.03799,200.974802 338.855447,202.255819 C339.211716,202.7769 339.405011,203.473459 339.435338,204.345516 C339.442077,204.539307 339.410985,205.728793 339.34206,207.914012 L339.422932,210.239487 C339.346655,210.824242 339.340222,211.333781 339.403633,211.768118 L339.409607,214.023459 L339.558716,218.311053 C339.578934,218.892424 339.568289,219.280845 339.526781,219.476328 L339.885422,223.538295 C340.090208,223.870661 340.20355,224.351747 340.225453,224.981566 C340.599183,227.393797 341.242173,229.214477 342.154441,230.443663 L342.693896,231.370623 C341.651588,233.34744 339.934909,233.989708 337.543804,233.297445 C337.339019,232.965079 337.075612,232.68328 336.753577,232.452039 C336.431541,232.220797 335.9959,231.848025 335.44664,231.333711 C335.444955,231.285264 335.089534,230.788414 334.380367,229.843147 C334.360148,229.261775 334.066989,228.471706 333.500881,227.472916 L333.500881,227.472916 L333.500881,227.472916 Z M344.800247,211.142325 L345.467443,207.408185 L345.484215,205.806883 C345.579025,205.755052 345.688692,205.435918 345.813217,204.849471 C345.992117,203.048449 346.950015,202.117499 348.686939,202.056594 C349.605333,202.072896 350.603667,202.304672 351.681969,202.751929 C352.067952,202.738394 352.363332,202.897807 352.568117,203.230173 C352.811042,203.270162 353.033208,203.407889 353.234624,203.64336 C353.43604,203.878831 353.471536,204.205002 353.341114,204.621882 C353.210691,205.038763 353.138053,205.380852 353.123195,205.648159 C353.108338,205.915467 353.005564,206.780052 352.81487,208.24194 C352.265764,211.899198 352.061365,214.355918 352.201667,215.612173 L355.90249,209.516106 L357.258938,206.849193 C358.063988,206.384403 358.80171,206.067499 359.472126,205.89847 C359.809861,205.886627 360.198366,205.945763 360.637651,206.07588 C362.04358,206.220607 362.749903,206.389864 362.756642,206.583654 L363.645318,207.13457 C364.24788,207.792535 364.568801,208.339101 364.608088,208.774283 C364.647376,209.209466 364.613871,209.635068 364.507573,210.051103 C364.401274,210.467137 364.262583,210.99344 364.091494,211.630026 C364.093179,211.678474 363.682619,214.457711 362.859802,219.967822 L365.537316,213.6166 L366.228176,212.646498 C366.213012,212.21047 366.663472,211.27306 367.579569,209.834243 L368.257793,208.500786 C368.252738,208.355443 368.413179,208.107287 368.739121,207.756311 C368.883864,207.751235 369.021024,207.528149 369.150604,207.087045 C369.744129,206.096098 370.302035,205.47021 370.824338,205.209362 C371.634443,204.889915 372.645948,204.80594 373.858885,204.957435 L374.814877,205.360471 C375.021348,205.741285 375.173671,205.954221 375.271852,205.999285 L375.488966,205.991671 C376.086474,206.504293 376.324647,207.102267 376.203491,207.785609 C376.042512,208.712881 375.967078,209.321851 375.977187,209.612537 L375.378227,215.308797 C375.285101,215.409075 375.241909,215.556108 375.248648,215.749898 C375.155522,215.850177 375.068333,217.162896 374.987077,219.688094 C374.905822,222.213293 374.907316,224.687045 374.991559,227.109427 L375.094257,227.978942 L375.499078,229.201662 L376.046115,230.346635 C376.162829,230.924623 376.047419,231.425856 375.699881,231.85035 C375.352343,232.274844 374.913217,232.496392 374.38249,232.515002 C371.098264,232.533151 369.276895,231.55414 368.918329,229.577938 C368.765161,229.340775 368.683524,229.076855 368.673415,228.786169 C368.663306,228.495483 368.551648,228.062845 368.338438,227.48824 L368.310638,226.688858 L368.417472,225.593717 C368.272728,225.598792 368.172979,224.814068 368.118221,223.23952 C368.063464,221.664972 368.08012,220.7549 368.168192,220.509279 C368.332541,219.678902 368.398708,218.803474 368.366696,217.882969 C368.228692,218.081835 367.997565,218.380975 367.673309,218.780399 C367.024796,219.579247 366.610789,220.175836 366.431277,220.570184 L365.157309,223.525244 C364.180099,225.984846 363.437935,227.563062 362.930796,228.259939 C362.423657,228.956816 361.56616,229.302173 360.358278,229.296021 C359.150396,229.289869 358.396668,229.146528 358.097071,228.865993 C357.704349,228.685737 357.397328,228.538859 357.176001,228.425353 C356.954673,228.311847 356.851286,227.76978 356.865837,226.799135 L356.840564,226.072425 L357.574158,220.080405 C357.826578,219.004406 357.949417,218.369521 357.942677,218.175731 L358.171509,216.421474 L358.123491,215.040723 L357.435158,216.083496 L356.829305,217.414415 C356.643053,217.614973 356.554983,217.860591 356.565092,218.151277 C356.328907,218.305079 356.145185,218.578304 356.01392,218.97096 L353.391087,224.810947 C352.629843,226.535376 352.216143,227.835291 352.149975,228.710732 C351.877336,229.205359 351.546919,229.774764 351.158715,230.418964 C350.770511,231.063163 350.345975,231.356959 349.885093,231.30036 C349.42421,231.243761 349.094751,231.146175 348.896705,231.0076 C348.698659,230.869024 348.619549,230.677774 348.659372,230.433844 C348.088822,230.696384 347.623735,230.518669 347.264096,229.900692 L345.448836,227.708794 C345.25079,227.570219 345.145029,227.307144 345.13155,226.919563 C345.256075,226.333116 345.239227,225.848647 345.081005,225.466142 C344.922782,225.083636 344.863584,224.770423 344.903407,224.526493 C344.791748,224.093848 344.72244,223.489954 344.695483,222.714792 C344.66347,221.794287 344.567512,221.118568 344.407605,220.687614 C344.394126,220.300033 344.428894,219.910766 344.511911,219.519802 L344.486639,218.793091 C344.316009,216.664779 344.416945,215.400084 344.78945,214.998968 C344.484799,214.57309 344.474383,213.579083 344.758203,212.016916 L344.800247,211.142325 L344.800247,211.142325 Z M387.589015,200.183161 C388.334637,200.787603 388.763003,201.64569 388.874126,202.757448 C388.98525,203.869205 388.988083,204.645202 388.882627,205.08546 C388.777171,205.525718 388.624351,207.034762 388.42416,209.612638 C388.291211,209.956847 388.234846,210.41963 388.255064,211.001002 L387.756276,217.494105 C387.845573,220.06183 387.921927,221.562838 387.985338,221.997175 C388.04875,222.431512 388.157038,222.767256 388.310206,223.004419 C388.365193,223.196518 388.58736,223.334245 388.976713,223.417606 C389.366066,223.500967 389.628055,223.394768 389.76269,223.099007 C389.747526,222.662978 389.880474,222.318774 390.161537,222.066385 C390.158167,221.96949 390.448186,221.280236 391.031602,219.998604 C391.024863,219.804814 391.100029,219.535395 391.257103,219.19034 C391.414176,218.845285 391.524264,218.538263 391.587369,218.269263 C391.650474,218.000263 391.704465,217.816473 391.749343,217.717886 C391.93728,217.565775 392.159983,217.0244 392.417458,216.093744 C392.398925,215.560821 392.669032,214.99353 393.227789,214.391857 C393.222734,214.246514 393.443752,213.656692 393.890849,212.622373 L394.012846,211.963258 C394.817284,210.091795 395.182737,208.793572 395.109216,208.068549 L395.347237,204.494978 L395.969861,201.562757 C396.591417,199.988747 397.523506,199.010197 398.766157,198.627076 C399.336707,198.364536 400.124093,198.433938 401.128339,198.835284 C402.132584,199.23663 402.774539,199.638547 403.054224,200.041047 C403.333909,200.443547 403.480488,200.838581 403.493967,201.226162 L403.539458,202.534242 L403.494886,203.336161 L403.631359,207.2604 C403.73245,210.167258 403.857357,212.3699 404.006083,213.868393 C404.447207,218.218529 405.421264,221.919334 406.928283,224.970919 C407.657669,226.497558 407.409464,227.694658 406.183662,228.562255 C405.476792,229.072109 404.640891,229.34395 403.675933,229.377786 C402.035505,229.435308 400.879794,228.845256 400.208765,227.607611 C399.854182,227.134978 399.51783,226.491941 399.1997,225.678483 C398.88157,224.865024 398.670048,224.338875 398.565128,224.100021 C398.241944,223.141219 398.030422,222.61507 397.930557,222.521559 L397.303567,221.16111 C396.617528,223.659008 395.391821,226.612347 393.626408,230.021215 C393.262328,230.664569 392.605401,231.22117 391.655607,231.691035 C390.780406,231.527698 389.830319,231.29423 388.80532,230.990625 C388.169673,230.770381 387.120565,230.467626 385.657965,230.082352 C384.689637,230.019294 384.129319,229.881297 383.976994,229.668358 C383.824668,229.455419 383.711058,229.313885 383.636159,229.243751 C383.56126,229.173618 383.522968,229.114328 383.521283,229.06588 C383.368115,228.828717 383.122667,228.716059 382.784932,228.727902 C382.576777,228.298641 382.274658,227.94544 381.878566,227.668289 C381.876881,227.619841 381.796086,227.380144 381.636179,226.949191 C381.093658,226.628668 380.624052,225.626509 380.227347,223.942685 C379.977683,223.708906 379.742421,222.152837 379.521552,219.274433 C379.300684,216.396028 379.2138,214.592227 379.260899,213.862975 C379.307998,213.133722 379.323123,212.526867 379.306275,212.042391 C379.20304,211.851984 379.212,211.415116 379.333155,210.731774 C379.454311,210.048431 379.486552,209.586494 379.42988,209.345948 L379.613221,206.283611 L380.101211,203.64715 C380.075938,202.920436 380.291059,202.16105 380.74658,201.36897 C381.202102,200.576889 381.523826,200.104801 381.711763,199.952691 C381.891276,199.558342 382.555784,199.219752 383.70531,198.93691 C383.948234,198.976899 384.263104,199.002237 384.64993,199.012926 C385.036755,199.023616 385.400294,199.059374 385.740556,199.120203 C386.080819,199.181031 386.696966,199.535347 387.589015,200.183161 L387.589015,200.183161 L387.589015,200.183161 Z M425.135567,226.005948 L424.658374,224.785766 L423.692961,219.944718 C423.41971,219.032672 423.27045,218.213304 423.245177,217.48659 L423.423463,214.278911 C423.40493,213.745987 423.418944,213.45446 423.465507,213.404321 C422.886533,213.424623 422.042514,214.157555 420.933425,215.60314 C420.841984,215.751867 420.705667,215.999177 420.524469,216.345078 C418.610943,219.662126 417.540392,223.604396 417.312786,228.172008 C416.955445,229.009153 416.463171,229.438715 415.835948,229.460709 C414.523146,229.215703 413.794384,229.095739 413.649641,229.100815 L413.145568,229.19125 L412.204739,229.22424 C411.091667,229.166257 410.352797,228.755612 409.988104,227.992293 C409.786688,227.756822 409.668291,227.130396 409.632909,226.112995 L409.597527,225.0956 L409.241413,221.106304 L409.034177,215.147275 C409.010589,214.469008 408.932857,213.622879 408.80098,212.608863 C408.665732,211.497951 408.580534,209.742596 408.545381,207.342747 C408.510229,204.942897 408.441458,203.6599 408.339065,203.493717 C408.236672,203.327534 408.180422,203.099103 408.170313,202.808417 C408.160204,202.517731 408.222465,202.224512 408.3571,201.928751 C408.491735,201.63299 409.13212,201.295246 410.278275,200.915508 C410.892019,200.505933 411.415998,200.293536 411.850229,200.27831 C412.530754,200.399967 413.409312,200.660196 414.485929,201.059004 C415.214702,201.17897 415.600986,201.868761 415.644792,203.1284 C415.813737,205.208264 415.878028,206.709695 415.837669,207.632738 C415.797309,208.555781 415.874237,210.420564 416.068454,213.227143 C419.399548,206.222384 422.439808,201.968514 425.189325,200.465407 C425.42214,200.21471 425.779782,200.080904 426.262261,200.063986 C426.74474,200.047067 427.308006,200.269846 427.952077,200.732329 C428.596148,201.194811 429.041324,201.49449 429.287618,201.631374 C429.533912,201.768257 429.819757,202.000764 430.145163,202.3289 C430.470568,202.657037 430.731447,202.866166 430.927808,202.956294 C431.54048,203.904945 431.740285,206.17772 431.527229,209.774687 C431.497514,210.309303 431.465694,210.783352 431.431768,211.196849 C431.397841,211.610346 431.404466,212.495347 431.451641,213.851881 C431.498817,215.208415 431.555795,216.152284 431.622576,216.683516 C431.82629,218.374107 431.9332,219.364731 431.943309,219.655417 L432.401202,222.404229 C432.922433,223.501607 433.205636,224.352657 433.250821,224.957407 C433.296005,225.562156 433.751443,226.504179 434.617148,227.783504 C434.980156,228.498376 434.855633,229.084814 434.243574,229.542837 C433.295465,230.061149 432.783968,230.285236 432.709069,230.215102 C432.63417,230.144968 432.358434,230.203143 431.881852,230.389628 C431.40527,230.576113 430.538085,230.642901 429.28027,230.589993 C428.647993,230.466644 428.007301,230.101062 427.358175,229.493237 L426.234694,228.441236 C425.828493,227.873399 425.541231,227.252894 425.372899,226.579703 C425.123236,226.345924 425.044126,226.154674 425.135567,226.005948 L425.135567,226.005948 L425.135567,226.005948 Z M444.191314,186.847869 C445.88336,186.88555 446.998252,187.343642 447.536025,188.222159 C448.073797,189.100676 448.296692,189.953841 448.204714,190.781681 C448.112737,191.60952 447.496782,192.649744 446.35683,193.902385 C445.216878,195.155026 444.163597,195.774031 443.196954,195.75942 C442.907467,195.769571 442.335508,195.644109 441.481061,195.38303 C440.626614,195.121951 440.174431,194.968036 440.124498,194.921281 C440.069511,194.729182 439.919715,194.588917 439.675106,194.50048 C438.403812,194.059992 437.661265,192.849127 437.447442,190.867849 C437.440703,190.674059 437.58039,190.523643 437.866508,190.416596 C437.673516,190.423364 437.639283,190.133528 437.763809,189.547081 C438.064477,188.469391 438.787878,187.740687 439.934034,187.36095 C441.419609,187.017818 442.766317,186.84933 443.9742,186.855482 L444.191314,186.847869 Z M444.468855,205.246341 L443.660594,217.425554 C443.670703,217.716239 443.680391,217.994809 443.689657,218.261271 C443.698924,218.527733 443.731051,218.75701 443.786038,218.949109 C443.74453,219.144591 443.72883,219.387671 443.738939,219.678357 L443.920902,224.910675 C444.171179,226.551127 444.204876,227.520065 444.021993,227.817519 C443.735876,227.924565 443.403621,228.09386 443.02522,228.325409 C442.646819,228.556958 441.912734,228.631205 440.822945,228.548152 C439.733155,228.465099 438.94282,228.310915 438.451917,228.085595 L437.575878,227.898034 C437.093399,227.914953 436.772211,227.707938 436.612303,227.276985 C435.971602,226.911398 435.616181,226.414548 435.54603,225.786421 C435.392862,225.549258 435.549934,225.204208 436.017249,224.751261 C435.960577,224.510715 435.851867,224.162859 435.691118,223.707682 C435.530368,223.252505 435.467378,222.830286 435.502147,222.441013 C435.638467,222.193699 435.55346,221.832885 435.247124,221.35856 C435.228591,220.825636 435.279901,220.217512 435.401057,219.53417 C435.587309,219.333612 435.611126,218.62944 435.472509,217.421633 C435.793396,216.925314 435.938673,216.241136 435.908346,215.369078 C435.688396,214.600684 435.73381,213.822995 436.044588,213.035991 C436.355365,212.248986 436.521397,211.467068 436.542687,210.690214 C436.597061,209.47564 436.772895,208.281077 437.070194,207.106491 C437.053345,206.622015 437.255562,205.838829 437.67685,204.756908 C438.098138,203.674988 438.37778,203.034605 438.515785,202.835739 L439.633292,201.632398 L440.918287,201.078021 L440.990659,201.075483 C441.562894,200.861391 442.142703,200.865312 442.730101,201.087249 C444.147824,201.57111 445.00647,201.953302 445.306066,202.233836 C445.119814,202.434394 445.009305,202.729305 444.974536,203.118578 C444.939767,203.507851 444.903314,203.848671 444.865175,204.141049 C444.680608,204.390054 444.548502,204.758481 444.468855,205.246341 L444.468855,205.246341 L444.468855,205.246341 Z M459.738888,186.411827 C459.758264,186.968975 459.75141,187.466402 459.718326,187.904122 L459.784035,189.79357 L459.729354,190.304806 L459.782427,191.830898 C459.79759,192.266927 459.78863,192.703795 459.755546,193.141516 L462.270856,192.543997 C462.463848,192.53723 463.15922,192.391582 464.356993,192.107048 C465.554766,191.822514 466.648598,191.67502 467.638522,191.664561 C468.628446,191.654103 469.311067,191.836317 469.686405,192.211209 C470.061743,192.586101 470.262045,193.136897 470.287318,193.863611 C470.404032,194.441599 470.254542,195.00466 469.838845,195.55281 L469.564522,195.998987 C469.200442,196.642341 468.659921,197.073596 467.942942,197.292764 L465.422577,197.74494 L462.193661,198.658519 L460.264904,199.453749 C460.355273,200.663248 460.486039,201.992577 460.657204,203.441776 C460.828369,204.890976 460.92406,205.906246 460.944278,206.487618 L461.254901,209.168835 C462.030391,213.410232 463.002227,217.741693 464.170439,222.163347 C464.47509,222.589224 464.823236,223.571389 465.214886,225.109871 L465.846931,226.615662 C466.097207,228.256114 465.112659,229.115239 462.893256,229.193063 C462.507273,229.206598 461.53896,229.14354 459.988288,229.003888 C459.552372,228.970667 458.909996,228.556638 458.061139,227.761789 C458.057769,227.664894 457.781459,227.359294 457.232199,226.84498 L455.740886,223.550327 C455.639336,223.408368 455.502712,222.952352 455.331011,222.182265 C454.781751,221.667952 454.305406,220.472005 453.901961,218.59439 C453.898591,218.497495 453.84192,218.256952 453.731946,217.872755 L453.696564,216.85536 C453.347035,216.528069 453.072945,215.591814 452.874286,214.046565 C452.675627,212.501316 452.456217,211.05383 452.216049,209.704064 C452.15034,207.814606 451.942418,206.002923 451.592275,204.268959 L451.391933,202.675271 L451.369187,202.021231 C451.400587,201.535063 451.392162,201.292828 451.343915,201.29452 L450.475457,201.324973 C449.755108,201.447246 449.152019,201.468393 448.66617,201.388416 C446.543263,201.462857 445.050664,200.90887 444.188329,199.726441 C443.563863,198.438657 443.510255,197.591682 444.027503,197.185491 C444.544751,196.779299 445.833946,196.346045 447.895126,195.885716 C448.811836,195.853571 449.98294,195.497217 451.408474,194.816643 C451.366352,193.605452 451.415135,192.924658 451.554825,192.774239 C451.660817,191.654868 451.792769,190.934778 451.950685,190.613947 C452.108601,190.293116 452.205784,189.962293 452.242238,189.621468 C452.25005,188.457033 452.600339,186.722787 453.293117,184.418679 C453.543853,183.294233 453.783097,182.534001 454.010858,182.137961 C454.606068,181.195462 455.898633,180.859102 457.88859,181.12887 C458.713859,181.245452 459.3279,181.53921 459.730731,182.010151 C459.87379,181.956628 459.90607,182.537568 459.827571,183.752988 C459.749073,184.968409 459.719512,185.854679 459.738888,186.411827 L459.738888,186.411827 L459.738888,186.411827 Z M489.798055,208.463446 L489.559115,209.927019 L489.475026,211.6762 C489.488505,212.063781 489.432982,212.550788 489.308457,213.137235 C489.377536,215.123588 489.285024,216.630518 489.030919,217.658069 C489.074725,218.917707 488.933966,220.426329 488.608638,222.183978 C488.51444,223.642482 488.501574,224.661559 488.57004,225.241239 C488.345649,225.734174 488.240195,226.174426 488.253673,226.562007 C488.260413,226.755797 488.205733,227.267028 488.089632,228.095713 C487.97353,228.924398 487.775794,229.489151 487.496416,229.789987 C487.514949,230.322911 487.43446,230.786541 487.254948,231.180889 C486.983994,231.723964 486.797898,232.276182 486.696654,232.837559 C486.59541,233.398936 486.510709,233.741448 486.44255,233.865105 C486.37439,233.988762 486.341153,234.074813 486.342838,234.12326 L485.190868,236.419205 C485.192553,236.467653 484.962269,236.791017 484.500008,237.389307 C484.415306,237.731824 484.11939,238.251513 483.612252,238.94839 C483.618991,239.142181 482.819849,239.776528 481.214803,240.85145 C480.69924,241.306089 480.058855,241.643833 479.293628,241.864693 L478.652394,242.178217 C477.943839,242.639623 477.059691,242.913156 475.999922,242.998824 C473.887124,243.36395 472.318249,243.39471 471.29325,243.091105 L469.388846,242.503046 L469.391373,242.575717 C468.607613,242.263653 467.916147,241.827093 467.316954,241.266023 C466.236967,240.770319 465.518429,240.249823 465.161318,239.704518 C464.804207,239.159213 464.458167,238.237607 464.123189,236.939672 C464.009845,236.458579 464.121043,235.836229 464.456787,235.072602 C464.792531,234.308975 465.274849,233.940393 465.903757,233.966847 C466.0485,233.961772 466.661699,234.231306 467.74337,234.775457 C467.844921,234.917416 468.367522,235.359898 469.311189,236.102915 C470.416449,237.325334 471.548037,237.916232 472.705986,237.875628 C473.140217,237.860401 473.45256,237.81307 473.643024,237.733631 C473.833488,237.654192 474.38454,237.525731 475.296195,237.348243 C475.146397,237.207976 475.20123,237.048409 475.460697,236.869537 C475.720163,236.690665 475.921423,236.574469 476.064481,236.520946 C476.398847,236.412208 476.680748,236.184046 476.910194,235.836454 L477.82575,235.076752 C477.917191,234.928026 478.243128,234.577055 478.803569,234.023829 L479.491902,232.981056 C479.480108,232.641923 479.726092,232.075479 480.229861,231.281707 C480.176558,231.138055 480.286225,230.818921 480.558864,230.324294 C480.552124,230.130503 480.590262,229.83813 480.673279,229.447165 L481.223532,226.517482 L481.135997,226.083994 C481.357018,225.494163 481.455733,224.860124 481.432145,224.181857 L481.867982,222.129302 L481.575969,222.066782 L480.279256,224.367803 C480.280941,224.41625 480.212361,224.527794 480.073515,224.702436 C479.934668,224.877078 479.750525,225.138191 479.521079,225.485784 L478.21173,227.423449 L477.503179,227.884853 C476.285801,228.994688 474.900112,229.431326 473.34607,229.194779 C472.657121,228.830883 472.033967,228.622331 471.476589,228.569115 C470.919211,228.5159 470.3659,228.23214 469.81664,227.717826 C469.180993,227.497581 468.563582,227.10693 467.96439,226.545861 C467.757919,226.165047 467.650895,225.865637 467.643313,225.647623 C467.635731,225.429609 467.502056,225.058375 467.242283,224.53391 C466.672192,222.031551 466.355139,219.8599 466.291114,218.01889 C466.237812,217.875239 466.233446,217.402458 466.278018,216.600535 C466.32259,215.798611 466.340242,215.264426 466.330975,214.997964 C466.321709,214.731502 466.357741,214.37857 466.439073,213.939158 L466.650214,211.676204 C466.926222,211.278472 467.118062,210.544155 467.225739,209.473231 C467.424857,208.253582 467.902504,206.708894 468.658693,204.839123 L468.987696,203.88171 L469.60113,202.768805 C469.584282,202.284328 469.754525,201.623528 470.111866,200.786384 C470.469206,199.949239 470.693594,199.456311 470.785035,199.307585 C470.876476,199.158858 471.038602,198.959149 471.271417,198.708452 C471.504232,198.457754 471.736202,198.182837 471.967332,197.883693 C472.574336,197.280327 473.387799,197.057779 474.407744,197.216041 C475.427689,197.374303 476.197269,197.626227 476.716509,197.97182 C477.235748,198.317413 477.394121,199.051576 477.191633,200.174331 C476.788343,202.468287 476.587543,203.639472 476.589228,203.68792 L476.130645,205.086435 C476.152548,205.716254 476.073745,206.22833 475.894232,206.622678 C475.900972,206.816469 475.748419,207.985962 475.436569,210.131192 C475.120737,210.772854 474.967878,211.239021 474.977987,211.529707 C474.991466,211.917288 474.889802,212.466545 474.672993,213.177495 C474.456184,213.888445 474.306273,214.439394 474.223256,214.830358 C474.110525,215.755939 474.04183,216.558696 474.01717,217.238655 C473.99251,217.918614 473.822267,218.579414 473.506435,219.221076 C473.602931,219.217692 473.61304,219.508374 473.536762,220.093129 L473.562035,220.81984 C473.534005,221.402903 473.9559,221.727651 474.827731,221.794094 C475.699563,221.860536 476.521143,221.176896 477.292497,219.743154 C478.366203,217.280168 478.970365,215.900816 479.104999,215.605054 L479.646062,214.494686 L479.840431,213.833033 C480.169742,213.578952 480.449116,213.27812 480.678561,212.930528 L481.074881,211.825235 C481.069827,211.679892 481.931153,208.666571 483.658886,202.785183 L484.027406,200.880508 C483.988654,199.766212 484.188344,198.910356 484.626481,198.312912 C485.064617,197.715468 485.499952,197.384914 485.932498,197.32124 C486.656217,197.295862 487.801819,197.595233 489.369339,198.219361 C489.948314,198.199059 490.332913,198.840404 490.523147,200.143415 C490.553475,201.015472 490.402607,202.233412 490.070539,203.797271 C489.957807,204.722851 489.913236,205.524763 489.936824,206.20303 C489.812299,206.789477 489.766043,207.542941 489.798055,208.463446 L489.798055,208.463446 L489.798055,208.463446 Z" id="community" fill="#333333" transform="translate(373.433491, 212.168341) rotate(-1.000000) translate(-373.433491, -212.168341) "></path>
            <path d="M30.7417079,74.0778151 L30.7417079,41.3649966 L39.0681924,41.3649966 L39.0681924,74.0778151 L30.7417079,74.0778151 Z M59.0574385,64.8844637 L52.5103123,64.8844637 L52.5103123,74.0778151 L44.1838278,74.0778151 L44.1838278,41.3649966 L58.8065033,41.3649966 C63.1408594,41.3649966 66.4904299,42.3535191 68.8553154,44.3305938 C71.2202009,46.3076685 72.4026259,49.1211557 72.4026259,52.7711397 C72.4026259,55.2652955 71.8969586,57.3982229 70.8856089,59.169986 C69.8742591,60.9417491 68.4028814,62.3142746 66.4714315,63.2876037 L73.3379296,74.0778151 L63.9164554,74.0778151 L59.0574385,64.8844637 Z M58.8065033,58.3373376 C60.6162871,58.3373376 62.0192286,57.8848984 63.0153701,56.9800065 C64.0115116,56.0751146 64.5095749,54.7634213 64.5095749,53.0448871 C64.5095749,51.3567695 64.0115116,50.0792943 63.0153701,49.2124231 C62.0192286,48.3455518 60.6162871,47.9121227 58.8065033,47.9121227 L52.5103123,47.9121227 L52.5103123,58.3373376 L58.8065033,58.3373376 Z M76.5829576,74.0778151 L76.5829576,41.3649966 L84.9094421,41.3649966 L84.9094421,74.0778151 L76.5829576,74.0778151 Z M110.222515,41.9809283 C112.496151,42.6348838 114.492206,43.5245541 116.21074,44.6499658 L113.062645,51.1286551 C111.344111,50.1249095 109.50774,49.3074774 107.553478,48.6763343 C105.599216,48.0451912 103.952945,47.7296244 102.614618,47.7296244 C101.519623,47.7296244 100.64516,47.931131 99.991205,48.33415 C99.3372495,48.7371691 99.0102766,49.3264806 99.0102766,50.1021022 C99.0102766,51.1362644 99.5159439,51.9270824 100.527294,52.47458 C101.538643,53.0220776 103.131685,53.6075871 105.306468,54.231126 C107.587708,54.8850815 109.458296,55.5390272 110.91829,56.1929826 C112.378284,56.8469381 113.640551,57.8278566 114.70513,59.1357676 C115.769708,60.4436785 116.30199,62.184999 116.30199,64.3597811 C116.30199,66.4737302 115.724084,68.2872888 114.568256,69.8005114 C113.412428,71.3137339 111.846,72.4505348 109.868925,73.2109482 C107.89185,73.9713615 105.671477,74.3515625 103.207737,74.3515625 C100.500666,74.3515625 97.824051,73.8839153 95.1778126,72.9486069 C92.5315741,72.0132985 90.2275562,70.7396252 88.2656898,69.1275489 L91.4822222,62.7172965 C93.1399233,64.1468736 95.0903542,65.3216946 97.3335736,66.2417947 C99.576793,67.1618949 101.565244,67.6219381 103.298986,67.6219381 C104.637314,67.6219381 105.682867,67.3824114 106.435676,66.903351 C107.188485,66.4242906 107.564884,65.7133148 107.564884,64.7704023 C107.564884,63.7058236 107.040207,62.8959955 105.990836,62.3408938 C104.941466,61.785792 103.314206,61.2116886 101.109007,60.6185662 C98.8733918,59.9950272 97.0294171,59.3714976 95.5770276,58.7479587 C94.1246381,58.1244198 92.8775789,57.1739173 91.8358126,55.8964229 C90.7940463,54.6189285 90.273171,52.9384402 90.273171,50.8549077 C90.273171,48.8626247 90.8092544,47.1289083 91.8814372,45.6537064 C92.95362,44.1785045 94.4782259,43.0340996 96.4553006,42.2204573 C98.4323753,41.406815 100.713581,41 103.298986,41 C105.64106,41 107.948879,41.3269728 110.222515,41.9809283 Z M142.672993,74.0778151 L142.672993,61.3713716 L129.122494,61.3713716 L129.122494,74.0778151 L120.79601,74.0778151 L120.79601,41.3649966 L129.122494,41.3649966 L129.122494,54.8242455 L142.672993,54.8242455 L142.672993,41.3649966 L150.976665,41.3649966 L150.976665,74.0778151 L142.672993,74.0778151 Z" id="IRISH" fill="#333333"></path>
        </g>
    </g>
</svg>