<?xml version="1.0" encoding="UTF-8" standalone="no"?>
<svg width="140px" height="140px" viewBox="0 0 140 140" version="1.1" xmlns="http://www.w3.org/2000/svg" xmlns:xlink="http://www.w3.org/1999/xlink">
    <!-- Generator: Sketch 41 (35326) - http://www.bohemiancoding.com/sketch -->
    <title>Artboard 3 Copy 4</title>
    <desc>Created with Sketch.</desc>
    <defs></defs>
    <g id="ITC" stroke="none" stroke-width="1" fill="none" fill-rule="evenodd">
        <g id="Artboard-3-Copy-4">
            <g id="Circle-thing" transform="translate(8.000000, 4.000000)">
                <path d="M105.909133,102.644296 C101.601675,107.472271 96.4326411,111.565591 90.5721361,114.647161 C87.6013774,116.224907 84.4703736,117.540902 81.2098749,118.564396 L79.3282767,112.584288 C87.9005423,109.893857 95.4639753,104.924487 101.308624,98.38613 L105.909133,102.644296 Z" id="Combined-Shape" fill="#565656"></path>
                <path d="M84.3111015,127.534557 C95.4730126,124.030064 105.336807,117.593711 113,109.127983 L107.706829,104.362687 C100.885021,111.89445 92.1062679,117.620665 82.1729218,120.73898 L84.3111015,127.534557 L84.3111015,127.534557 Z" id="Path" fill="#333333"></path>
                <path d="M99.5421934,30.843199 C90.6125252,21.8418401 78.2334898,16.2674602 64.5524882,16.2674602 C43.7045268,16.2674602 25.879934,29.2120403 18.6776014,47.502309 L12.8229649,45.2599034 C20.927619,24.6157192 41.0332115,10 64.5524882,10 C79.8085874,10 94.0407219,16.4002824 104.081604,26.3568376 L99.5421934,30.843199 Z" id="Combined-Shape" fill="#565656"></path>
                <path d="M16.7637845,53.4523776 C15.786577,57.3238174 15.2674602,61.3775297 15.2674602,65.5524882 C15.2674602,92.7718575 37.3331188,114.837516 64.5524882,114.837516 C67.3707311,114.837516 70.1337254,114.600969 72.8226999,114.146646 L73.8842085,120.324592 C70.8501951,120.837773 67.732546,121.104976 64.5524882,121.104976 C33.8716961,121.104976 9,96.2332802 9,65.5524882 C9,60.8704179 9.57922611,56.3236331 10.6699304,51.9798818 L16.7637845,53.4523776 Z" id="Path" fill="#9A9A9A"></path>
                <circle id="Oval" fill="#333333" cx="64.5472355" cy="65.5" r="46.519198"></circle>
                <path d="M49.3720272,128.65521 C54.3266743,129.86485 59.5041021,130.506167 64.8313175,130.506167 C68.554098,130.506167 72.2037291,130.192977 75.7553003,129.591509 L74.5490409,122.571118 C71.3895589,123.105701 68.1429445,123.384053 64.8313175,123.384053 C60.0782108,123.384053 55.4590314,122.810642 51.0391815,121.729222 L49.3720272,128.65521 L49.3720272,128.65521 Z" id="Path" fill="#333333"></path>
                <path d="M44.4630567,3.85645888 C50.8694065,1.74264899 57.716783,0.598809693 64.8313175,0.598809693 C82.7955166,0.598809693 99.0564166,7.89149965 110.815001,19.6778625 L105.778902,24.7139615 C95.3091702,14.2164459 80.8287991,7.72092356 64.8313175,7.72092356 C58.4869373,7.72092356 52.3811691,8.74254324 46.6695477,10.6302479 L44.4630567,3.85645888 L44.4630567,3.85645888 Z" id="Path" fill="#333333"></path>
                <path d="M36.7190543,6.98091888 C21.9735219,14.0711314 10.3177873,26.5656225 4.31991753,41.8963247 L10.9728471,44.4444875 C16.3149215,30.8243437 26.6742907,19.7231215 39.7764774,13.4152983 L36.7190543,6.98091888 Z" id="Path" fill="#84F402"></path>
                <path d="M2.84217094e-14,69.5723392 C1.56996332,95.2853172 18.0991458,116.956341 40.9953789,125.993244 L43.5774895,119.353533 C23.2147322,111.302694 8.51531481,92.0258382 7.11005803,69.1537859 L0,69.5723392 L2.84217094e-14,69.5723392 Z" id="Path" fill="#333333"></path>
                <path d="M0.0417881607,60.8987389 C0.311462529,57.0894262 0.909617394,53.3708496 1.80809553,49.7711663 L8.73283015,51.444433 C7.92315403,54.6742323 7.38509029,58.0117702 7.14432593,61.4313596 L0.0417881607,60.8987389 L0.0417881607,60.8987389 Z" id="Path" fill="#333333"></path>
            </g>
            <g id="Group" transform="translate(39.000000, 53.000000)" fill="#FFFFFF">
                <path d="M59.613677,1.70428666 C62.0577935,2.70991459 64.1419845,4.06480517 65.8663127,5.76899905 L60.8594583,11.526382 C59.7520916,10.2060156 58.4311812,9.15818238 56.8966873,8.38285093 C55.3621935,7.60751948 53.8277226,7.21985957 52.2932288,7.21985957 C50.5056225,7.21985957 48.8920553,7.63822521 47.4524786,8.47496906 C46.0129019,9.3117129 44.8818229,10.4593398 44.0592076,11.9178841 C43.2365923,13.3764284 42.8252909,15.0038324 42.8252909,16.8001449 C42.8252909,18.6271635 43.2365923,20.2775968 44.0592076,21.7514942 C44.8818229,23.2253916 46.0168567,24.3883714 47.4643432,25.2404683 C48.9118296,26.0925653 50.5214421,26.5186073 52.2932288,26.5186073 C53.716986,26.5186073 55.2000441,26.1731678 56.7424477,25.4822784 C58.2848513,24.791389 59.6571745,23.8471876 60.8594583,22.649646 L65.913771,27.8312907 C64.0628867,29.6583093 61.8837799,31.12067 59.3763853,32.2184165 C56.8689907,33.316163 54.3655886,33.865028 51.8661038,33.865028 C48.4965451,33.865028 45.4513324,33.1280904 42.7303742,31.654193 C40.009416,30.1802956 37.8698575,28.1460406 36.3116344,25.551367 C34.7534112,22.9566934 33.9743113,20.0703543 33.9743113,16.892263 C33.9743113,13.7448779 34.7692305,10.9084356 36.3590927,8.38285093 C37.9489549,5.8572663 40.1280616,3.86139349 42.8964784,2.39517262 C45.6648951,0.928951758 48.7496561,0.195852322 52.1508538,0.195852322 C54.6819776,0.195852322 57.1695605,0.698658742 59.613677,1.70428666 Z" id="Path"></path>
                <path d="M39.5365565,3.05269136 L39.5365565,0.426147642 L10.4683261,0.426147642 L10.4683261,7.21985957 L20.6244099,7.21985957 L20.6244099,33.4965555 L29.2855561,33.4965555 L29.2855561,7.21985957 L35.6172254,7.21985957 C36.6940085,5.62435809 38.0004471,4.2353067 39.5365565,3.05269136 Z" id="Combined-Shape"></path>
                <polygon id="Path" points="0.708583592 33.4965555 0.708583592 0.472206705 9.36972979 0.472206705 9.36972979 33.4965555"></polygon>
            </g>
        </g>
    </g>
</svg>