<?xml version="1.0" encoding="UTF-8" standalone="no"?>
<svg width="522px" height="261px" viewBox="0 0 522 261" version="1.1" xmlns="http://www.w3.org/2000/svg" xmlns:xlink="http://www.w3.org/1999/xlink">
    <!-- Generator: Sketch 41 (35326) - http://www.bohemiancoding.com/sketch -->
    <title>Artboard 3 Copy 8</title>
    <desc>Created with Sketch.</desc>
    <defs></defs>
    <g id="ITC" stroke="none" stroke-width="1" fill="none" fill-rule="evenodd">
        <g id="Artboard-3-Copy-8">
            <g id="Group" transform="translate(30.000000, 41.000000)">
                <polygon id="Combined-Shape" fill="#F4F4F4" points="350.731445 153.185186 350.731445 108.037725 312.584961 108.037725 312.584961 153.185186 270 153.185186 283 142.917969 283 47.7988281 269 36.9527645 312.584961 36.9527645 312.584961 84.7750302 350.731445 84.7750302 350.731445 36.9527645 380.235352 36.9527645 380.235352 153.185186"></polygon>
                <g id="Circle-thing" transform="translate(177.000000, 30.000000)">
                    <path d="M93.0134742,94.9700931 C93.7001509,94.3120789 94.3638332,93.630258 95.0031946,92.9259565 L99.6611995,97.1194295 C98.9355106,97.9196449 98.1826263,98.6947437 97.4040058,99.4432668 L93.0134742,94.9700931 L93.0134742,94.9700931 Z" id="Path" fill="#565656"></path>
                    <path d="M0.0417881607,60.8987389 C0.311462529,57.0894262 0.909617394,53.3708496 1.80809553,49.7711663 L8.73283015,51.444433 C7.92315403,54.6742323 7.38509029,58.0117702 7.14432593,61.4313596 L0.0417881607,60.8987389 L0.0417881607,60.8987389 Z M2.84217094e-14,69.5723392 C1.56996332,95.2853172 18.0991458,116.956341 40.9953789,125.993244 L43.5774895,119.353533 C23.2147322,111.302694 8.51531481,92.0258382 7.11005803,69.1537859 L0,69.5723392 L2.84217094e-14,69.5723392 Z M36.7190543,6.98091888 C21.9735219,14.0711314 10.3177873,26.5656225 4.31991753,41.8963247 L10.9728471,44.4444875 C16.3149215,30.8243437 26.6742907,19.7231215 39.7764774,13.4152983 L36.7190543,6.98091888 Z M44.4630567,3.85645888 C50.8694065,1.74264899 57.716783,0.598809693 64.8313175,0.598809693 C82.7955166,0.598809693 99.0564166,7.89149965 110.815001,19.6778625 L105.778902,24.7139615 C95.3091702,14.2164459 80.8287991,7.72092356 64.8313175,7.72092356 C58.4869373,7.72092356 52.3811691,8.74254324 46.6695477,10.6302479 L44.4630567,3.85645888 L44.4630567,3.85645888 Z M49.3720272,128.65521 C54.3266743,129.86485 59.5041021,130.506167 64.8313175,130.506167 C68.554098,130.506167 72.2037291,130.192977 75.7553003,129.591509 L74.5490409,122.571118 C71.3895589,123.105701 68.1429445,123.384053 64.8313175,123.384053 C60.0782108,123.384053 55.4590314,122.810642 51.0391815,121.729222 L49.3720272,128.65521 L49.3720272,128.65521 Z M84.3111015,127.534557 C95.4730126,124.030064 105.336807,117.593711 113,109.127983 L107.706829,104.362687 C100.885021,111.89445 92.1062679,117.620665 82.1729218,120.73898 L84.3111015,127.534557 L84.3111015,127.534557 Z" id="Combined-Shape" fill="#F4F4F4"></path>
                    <path d="M33.2569191,67.6468958 C33.6707793,74.0915064 35.9809915,80.0200237 39.635419,84.8803109 L34.6984147,88.7434193 C30.2813109,82.9083704 27.490335,75.774141 27,68.015244 L33.2569191,67.6468958 L33.2569191,67.6468958 Z M33.2641215,63.348805 C33.6714251,57.3240035 35.7363483,51.7538017 39.0065469,47.0905435 L33.9719605,43.353664 C30.0141722,48.9434873 27.5110074,55.6360812 27.0138183,62.8800935 L33.2641215,63.348805 Z M42.3549607,88.048842 C45.4632065,91.2299254 49.2252027,93.7694737 53.4237247,95.4502623 L51.1514084,101.29336 C46.1503228,99.3004054 41.6659148,96.2881786 37.9548091,92.5133039 L42.3549607,88.048842 L42.3549607,88.048842 Z M41.6395964,43.8121905 C44.3711713,40.8307027 47.6569675,38.3653375 51.3338131,36.5792667 L48.6432337,30.9169138 C44.2816198,33.0286716 40.3792955,35.940035 37.1266829,39.4605819 L41.6395964,43.8121905 L41.6395964,43.8121905 Z M55.1635038,35.0161102 C58.3740326,33.9422495 61.8099997,33.3605335 65.3818339,33.3605335 C68.121833,33.3605335 70.7818795,33.7028511 73.3215396,34.3470525 L74.894802,28.278639 C71.8524055,27.5045102 68.6651678,27.0930733 65.3818339,27.0930733 C61.1322685,27.0930733 57.0436807,27.7823001 53.2217564,29.0550676 L55.1635038,35.0161102 Z M76.7239251,95.6895145 C73.1963186,97.0177819 69.3739366,97.7444429 65.3818339,97.7444429 C62.6955068,97.7444429 60.0860307,97.4154047 57.5915096,96.7954326 L56.1243863,102.890416 C59.0895578,103.623151 62.1902968,104.011903 65.3818339,104.011903 C70.1560128,104.011903 74.7270152,103.142001 78.9449829,101.552054 L76.7239251,95.6895145 L76.7239251,95.6895145 Z M80.7051675,93.8705885 C83.9027065,92.136699 86.7735964,89.8770356 89.2018676,87.2075676 L93.8598886,91.4010551 C90.9556726,94.5987981 87.5202638,97.3053598 83.6930251,99.3813772 L80.7051675,93.8705885 L80.7051675,93.8705885 Z M77.4506496,35.6992729 C81.5109967,37.3423547 85.1597827,39.7897613 88.1994471,42.8439323 L92.6312213,38.4121581 C89.0079176,34.7743861 84.6609589,31.8579243 79.8245086,29.8969361 L77.4506496,35.6992729 L77.4506496,35.6992729 Z" id="Combined-Shape" fill="#79C721"></path>
                    <path d="M79.3282767,112.584288 C89.1151186,109.512659 97.5869991,103.47055 103.687417,95.5144611 L103.687417,104.9801 C97.46333,111.158271 89.7843925,115.872793 81.2098749,118.564396 L79.3282767,112.584288 L79.3282767,112.584288 Z" id="Path" fill="#565656"></path>
                    <path d="M88.7534972,98.5311239 C85.2328578,101.089357 81.2867205,103.097583 77.0412903,104.429596 L78.9228886,110.409703 C83.8484758,108.863908 88.4248532,106.529222 92.503964,103.553701 L88.7534972,98.5311239 L88.7534972,98.5311239 Z" id="Path" fill="#565656"></path>
                    <path d="M34.9352024,37.8782707 C42.3763808,29.8434998 53.0164975,24.8139968 64.8313175,24.8139968 C76.1086773,24.8139968 86.3157781,29.39632 93.6922584,36.8006047 L98.1240289,32.3688342 C89.6133554,23.8303655 77.8393886,18.5465366 64.8313175,18.5465366 C51.2447746,18.5465366 39.0045383,24.3107609 30.4227304,33.5270878 L34.9352024,37.8782707 L34.9352024,37.8782707 Z" id="Path" fill="#8A8A8A"></path>
                    <path d="M35.8042876,94.136694 C43.1932575,101.639413 53.4690718,106.29098 64.8313175,106.29098 C67.1561766,106.29098 69.4355507,106.096235 71.6540169,105.722171 L72.7155261,111.90012 C70.1520203,112.33304 67.5179914,112.55844 64.8313175,112.55844 C51.7547157,112.55844 39.9252558,107.21879 31.4043673,98.6009212 L35.8042876,94.136694 L35.8042876,94.136694 Z" id="Path" fill="#79C721"></path>
                    <path d="M32.352687,90.1481367 C27.1688395,83.3134812 24.0928262,74.7922054 24.0928262,65.5524882 C24.0928262,56.7748994 26.868838,48.645683 31.5908096,41.9948907 L26.5567977,38.2584377 C21.0597899,45.953121 17.825366,55.3750845 17.825366,65.5524882 C17.825366,76.2492999 21.3983547,86.1115954 27.4159743,94.0110169 L32.352687,90.1481367 L32.352687,90.1481367 Z" id="Path" fill="#565656"></path>
                    <path d="M18.6776014,47.502309 C25.879934,29.2120403 43.7045268,16.2674602 64.5524882,16.2674602 C80.5161455,16.2674602 94.7071295,23.857177 103.713852,35.6250221 L103.713852,26.1511337 C93.6704683,16.1685432 79.8318485,10 64.5524882,10 C41.0332115,10 20.927619,24.6157192 12.8229649,45.2599034 L18.6776014,47.502309 L18.6776014,47.502309 Z" id="Path" fill="#C1FF0F"></path>
                    <path d="M16.7637845,53.4523776 C15.786577,57.3238174 15.2674602,61.3775297 15.2674602,65.5524882 C15.2674602,92.7718575 37.3331188,114.837516 64.5524882,114.837516 C67.3707311,114.837516 70.1337254,114.600969 72.8226999,114.146646 L73.8842085,120.324592 C70.8501951,120.837773 67.732546,121.104976 64.5524882,121.104976 C33.8716961,121.104976 9,96.2332802 9,65.5524882 C9,60.8704179 9.57922611,56.3236331 10.6699304,51.9798818 L16.7637845,53.4523776 Z" id="Path" fill="#9A9A9A"></path>
                    <ellipse id="Oval" fill="#898989" cx="64.5472355" cy="65.5" rx="15.2322867" ry="15.2322867"></ellipse>
                </g>
                <path d="M173.468461,83.2233364 L148.514058,83.2233364 L148.514058,60.1689431 L181.904278,60.1689431 C187.33968,50.8466503 194.866653,42.8935236 203.841996,36.9527645 L119,36.9527645 L119,60.2205974 L119,152.952765 L202.549175,152.952765 C193.867413,146.924207 186.614708,138.981956 181.40165,129.736602 L148.514058,129.736586 L148.514058,106.439515 L173.28174,106.439515 C172.711354,102.840592 172.415127,99.1504136 172.415127,95.3910473 C172.415127,91.240929 172.776135,87.1751287 173.468461,83.2233364 Z" id="Combined-Shape" fill="#F4F4F4"></path>
                <polygon id="Path" fill="#F4F4F4" points="84.2763672 60.8638974 84.2763672 153.347296 54.6914062 153.347296 54.6914062 60.8638974 0 60.8638974 0 36.9527645 119.291992 36.9527645 119.291992 60.8638974"></polygon>
                <path d="M228.372861,169.243907 C228.350957,168.614088 228.646031,168.070175 229.25809,167.612153 L229.253035,167.46681 C229.241241,167.127677 229.594096,166.508979 230.311611,165.610699 C231.029126,164.712418 231.432756,164.164699 231.522512,163.967524 C232.562063,163.300485 233.24901,162.912602 233.583376,162.803864 C233.972728,162.887225 234.239773,162.926367 234.384516,162.921291 L234.529259,162.916216 C235.916654,162.528019 237.522557,162.520214 239.347016,162.892799 C241.171476,163.265384 242.464921,163.996125 243.227391,165.085043 C243.638647,165.798222 244.058321,166.753626 244.486425,167.951282 C245.12437,169.626647 245.456816,170.851893 245.483774,171.627055 C245.817067,172.876542 245.881627,174.038422 245.677454,175.112729 L245.630355,175.841978 C245.637095,176.035768 245.523216,176.233785 245.288716,176.436035 C245.054216,176.638285 244.779743,176.732795 244.465289,176.719568 C244.150836,176.706341 243.877627,176.837186 243.645654,177.112107 C243.413681,177.387028 242.923781,177.537598 242.175939,177.563821 C241.428097,177.590045 241.022476,177.385991 240.959064,176.951654 C240.812636,176.908282 240.577565,176.746754 240.253844,176.467065 C239.930124,176.187376 239.765739,175.974863 239.760684,175.82952 L239.381136,175.333512 C239.377766,175.236616 239.276218,175.094659 239.076487,174.907636 C238.611928,174.050805 238.419476,173.37847 238.499123,172.89061 C238.696556,171.622512 238.745339,170.941718 238.645474,170.848206 C238.620201,170.121492 238.353693,169.403247 237.845941,168.693451 C237.796008,168.646695 237.710312,168.613321 237.58885,168.593326 C237.467388,168.573332 237.309321,168.542495 237.114645,168.500815 C237.006355,168.165065 236.903964,167.998885 236.807468,168.002268 C236.473102,168.111006 236.120515,168.390153 235.749696,168.839716 C235.139935,170.75286 234.773639,172.026859 234.650799,172.661754 L234.370733,177.109916 L234.486988,180.452786 C234.644138,182.193517 234.874193,183.252582 235.177159,183.630012 C235.183898,183.823803 235.292187,184.159547 235.502027,184.637256 C235.572178,185.265384 236.117524,186.361899 237.138082,187.926834 L237.515103,188.350172 C237.77993,189.019979 238.201825,189.344727 238.780799,189.324425 C239.359774,189.304124 240.156388,188.597106 241.170666,187.203352 C241.117363,187.059701 241.410752,186.467342 242.050841,185.426256 C242.694299,184.482065 243.7431,184.081494 245.197276,184.224529 C245.827868,184.299431 246.154111,184.651786 246.176014,185.281605 C246.239426,185.715942 246.132593,186.811073 245.855512,188.56703 C245.389882,189.068425 245.165495,189.561353 245.182343,190.045829 C244.874935,190.929729 244.722919,191.42012 244.726288,191.517015 C244.581545,191.522091 244.43933,191.599836 244.299641,191.750255 L243.963057,192.489654 C243.770065,192.496422 243.652817,192.597545 243.611308,192.793027 C243.102485,193.441457 242.751582,193.76905 242.558591,193.775817 C242.418902,193.926236 242.035452,194.01244 241.408229,194.034434 C240.504998,194.45416 239.836277,194.671633 239.402046,194.686859 L238.174258,194.802672 L237.368063,194.539902 L236.714193,194.490071 C236.126794,194.268135 235.676717,194.174778 235.363948,194.209999 C235.051179,194.24522 234.821162,194.229032 234.673892,194.161436 C234.526621,194.09384 234.328999,193.967379 234.08102,193.782047 C233.485197,193.317873 233.102857,193.08875 232.933989,193.094671 C232.765122,193.100593 232.482646,192.96498 232.086554,192.687829 C231.697201,192.604468 231.377698,192.445901 231.128034,192.212122 L230.813275,191.495562 C230.897977,191.153045 230.842991,190.960949 230.648314,190.919268 C230.021092,190.941262 229.655026,190.832834 229.550106,190.593979 L229.095659,190.027837 C229.08218,189.640256 228.871501,189.13833 228.463615,188.522046 L227.504175,185.93634 C227.40431,185.842828 227.398413,185.673264 227.486485,185.427642 L227.440994,184.119563 L226.375409,178.481671 L226.340027,177.464276 C226.718658,175.850277 226.907128,175.019067 226.905444,174.970619 C226.820129,173.906463 227.028511,172.95329 227.530595,172.11107 C227.498583,171.190565 227.779335,170.234853 228.372861,169.243907 L228.372861,169.243907 L228.372861,169.243907 Z M261.38436,170.923976 C260.97923,168.997913 260.007241,168.134636 258.468363,168.334117 C257.601586,168.413018 256.873973,169.020604 256.285502,170.156893 C255.47601,171.883013 255.178333,174.088347 255.392462,176.772961 C255.606591,179.457575 255.866973,181.388684 256.173615,182.566346 C256.480258,183.744008 256.98647,184.757009 257.692268,185.605381 C258.101839,186.270113 258.691756,186.564716 259.462038,186.489199 C260.812979,186.441828 261.762452,185.268644 262.310486,182.969612 L262.828804,181.205204 C263.061619,180.954506 263.101442,180.71058 262.948274,180.473417 C263.388631,179.245308 263.604288,177.80682 263.595251,176.157909 C263.100978,175.835693 262.800544,175.530939 262.693939,175.243637 C262.375809,174.430178 262.211692,173.878114 262.201583,173.587429 C261.855424,173.357033 261.646429,172.903555 261.574593,172.22698 C261.502758,171.550405 261.439347,171.116075 261.38436,170.923976 L261.38436,170.923976 L261.38436,170.923976 Z M248.377944,178.219462 L248.538539,174.503086 C248.76002,171.148357 249.673805,168.254462 251.279923,165.821314 C252.851273,163.777439 255.131755,162.678847 258.121439,162.525506 L258.555668,162.51028 C261.354045,162.412154 263.401487,162.946684 264.698053,164.113887 C266.086061,165.132364 267.127625,166.259985 267.822778,167.496784 C268.51793,168.733582 268.972105,169.63927 269.185315,170.213875 C269.398524,170.788479 269.548627,171.63207 269.635626,172.744674 C269.804571,174.824538 269.435748,176.025868 268.529147,176.348698 C269.364679,180.927538 269.081783,184.599659 267.68045,187.365173 C267.236723,188.496387 266.579259,189.732091 265.708041,191.072322 C265.062898,191.968065 263.873567,192.494829 262.140013,192.65263 C260.403089,192.713536 258.891995,192.669511 257.606687,192.520554 C256.321378,192.371597 254.888667,191.803384 253.308511,190.815898 C251.728354,189.828413 250.583402,188.158725 249.873622,185.806785 C249.118964,183.553432 248.620409,181.024349 248.377944,178.219462 L248.377944,178.219462 L248.377944,178.219462 Z M303.500881,186.472916 C303.487402,186.085335 303.281356,185.716639 302.882736,185.366816 C302.484117,185.016994 302.276807,184.611962 302.260801,184.15171 C302.244795,183.691457 302.121764,182.931802 301.891706,181.872721 C301.981463,181.675547 301.932909,180.973913 301.746044,179.767798 C301.790922,179.669211 301.75443,178.967154 301.636567,177.661605 C301.518705,176.356057 301.442083,175.1946 301.406701,174.1772 L300.728478,175.510657 C299.315964,179.34371 298.613087,181.357102 298.619826,181.550893 L297.132191,186.696236 L296.758617,188.455569 C296.41644,189.728742 296.388717,191.015123 296.675448,192.314749 C296.787107,192.747394 296.296518,193.225404 295.203665,193.748792 C294.914178,193.758943 294.185416,193.63898 293.017357,193.388898 C292.631374,193.402432 292.25788,193.427656 291.896863,193.464568 C291.535847,193.501481 290.525873,193.282239 288.866911,192.806838 C288.860172,192.613047 288.459873,192.214783 287.666004,191.612033 L287.274508,186.605341 C287.237441,185.539493 287.324899,183.887223 287.536883,181.648481 L287.473701,179.831704 L287.679787,177.423407 L287.884954,172.905112 L287.834409,171.45169 C286.661449,175.227837 285.877242,177.680635 285.481762,178.810157 C285.501981,179.391528 285.039497,181.372238 284.094299,184.752344 C283.22599,188.954369 282.909398,191.657553 283.14451,192.861976 C283.15462,193.152662 283.07819,193.385745 282.915219,193.561233 C282.752249,193.736722 282.338931,194.005871 281.675255,194.36869 C280.613801,194.40591 278.98994,194.244575 276.803621,193.884678 L275.480717,193.348989 C275.041431,193.218872 274.635236,192.651044 274.262119,191.645486 C273.889002,190.639929 273.665686,189.774652 273.592165,189.049629 C273.390749,188.814158 273.27488,188.260403 273.244552,187.388345 L273.141854,186.51883 C272.623839,181.346776 272.331139,177.79185 272.263745,175.853945 C272.350132,175.559875 272.381531,175.073715 272.357943,174.395448 L272.287179,172.360657 C272.256852,171.4886 272.277567,170.347983 272.349326,168.938772 C272.421085,167.529561 272.446013,166.510062 272.42411,165.880242 L272.268338,163.484634 C272.434372,162.702705 273.430714,162.182708 275.257395,161.924628 C276.077609,161.895867 276.782247,162.016676 277.371331,162.28706 C278.358192,162.883043 278.999458,163.612399 279.295149,164.475152 C279.590839,165.337904 279.786394,166.446685 279.881817,167.801526 C279.977241,169.156368 280.016835,170.29487 280.000599,171.217067 C280.043333,173.834931 280.227975,175.671684 280.554529,176.727381 C280.823798,176.135858 281.174394,175.104939 281.606327,173.634592 C281.699453,173.534313 282.1614,172.232706 282.992183,169.729732 L284.352766,165.098161 C285.410237,163.557373 285.998009,162.74854 286.116102,162.671639 C286.234194,162.594738 286.606004,162.521068 287.231541,162.450627 C287.953575,162.376802 288.792157,162.529294 289.747312,162.908108 C290.702467,163.286922 291.216644,163.487169 291.289858,163.508855 C291.363072,163.530542 291.79408,163.770084 292.582895,164.227492 C292.930739,164.506335 293.263721,165.052477 293.581851,165.865936 C293.899981,166.679395 294.06831,167.352576 294.086843,167.8855 C294.250733,169.820022 294.334362,170.835715 294.337732,170.93261 L294.368059,171.804663 C294.372654,174.714904 294.500624,176.311115 294.751973,176.593341 C295.045902,175.32186 295.640797,173.676049 296.536676,171.65586 L297.194681,169.741035 L298.538493,166.710765 C298.48519,166.567114 298.726962,165.879553 299.263815,164.64806 L299.909185,162.369879 C300.291185,160.852776 301.456086,159.623532 303.403922,158.68211 C303.789905,158.668575 304.715868,158.902889 306.181838,159.385058 C307.146796,159.351221 308.03799,159.974802 308.855447,161.255819 C309.211716,161.7769 309.405011,162.473459 309.435338,163.345516 C309.442077,163.539307 309.410985,164.728793 309.34206,166.914012 L309.422932,169.239487 C309.346655,169.824242 309.340222,170.333781 309.403633,170.768118 L309.409607,173.023459 L309.558716,177.311053 C309.578934,177.892424 309.568289,178.280845 309.526781,178.476328 L309.885422,182.538295 C310.090208,182.870661 310.20355,183.351747 310.225453,183.981566 C310.599183,186.393797 311.242173,188.214477 312.154441,189.443663 L312.693896,190.370623 C311.651588,192.34744 309.934909,192.989708 307.543804,192.297445 C307.339019,191.965079 307.075612,191.68328 306.753577,191.452039 C306.431541,191.220797 305.9959,190.848025 305.44664,190.333711 C305.444955,190.285264 305.089534,189.788414 304.380367,188.843147 C304.360148,188.261775 304.066989,187.471706 303.500881,186.472916 L303.500881,186.472916 L303.500881,186.472916 Z M314.800247,170.142325 L315.467443,166.408185 L315.484215,164.806883 C315.579025,164.755052 315.688692,164.435918 315.813217,163.849471 C315.992117,162.048449 316.950015,161.117499 318.686939,161.056594 C319.605333,161.072896 320.603667,161.304672 321.681969,161.751929 C322.067952,161.738394 322.363332,161.897807 322.568117,162.230173 C322.811042,162.270162 323.033208,162.407889 323.234624,162.64336 C323.43604,162.878831 323.471536,163.205002 323.341114,163.621882 C323.210691,164.038763 323.138053,164.380852 323.123195,164.648159 C323.108338,164.915467 323.005564,165.780052 322.81487,167.24194 C322.265764,170.899198 322.061365,173.355918 322.201667,174.612173 L325.90249,168.516106 L327.258938,165.849193 C328.063988,165.384403 328.80171,165.067499 329.472126,164.89847 C329.809861,164.886627 330.198366,164.945763 330.637651,165.07588 C332.04358,165.220607 332.749903,165.389864 332.756642,165.583654 L333.645318,166.13457 C334.24788,166.792535 334.568801,167.339101 334.608088,167.774283 C334.647376,168.209466 334.613871,168.635068 334.507573,169.051103 C334.401274,169.467137 334.262583,169.99344 334.091494,170.630026 C334.093179,170.678474 333.682619,173.457711 332.859802,178.967822 L335.537316,172.6166 L336.228176,171.646498 C336.213012,171.21047 336.663472,170.27306 337.579569,168.834243 L338.257793,167.500786 C338.252738,167.355443 338.413179,167.107287 338.739121,166.756311 C338.883864,166.751235 339.021024,166.528149 339.150604,166.087045 C339.744129,165.096098 340.302035,164.47021 340.824338,164.209362 C341.634443,163.889915 342.645948,163.80594 343.858885,163.957435 L344.814877,164.360471 C345.021348,164.741285 345.173671,164.954221 345.271852,164.999285 L345.488966,164.991671 C346.086474,165.504293 346.324647,166.102267 346.203491,166.785609 C346.042512,167.712881 345.967078,168.321851 345.977187,168.612537 L345.378227,174.308797 C345.285101,174.409075 345.241909,174.556108 345.248648,174.749898 C345.155522,174.850177 345.068333,176.162896 344.987077,178.688094 C344.905822,181.213293 344.907316,183.687045 344.991559,186.109427 L345.094257,186.978942 L345.499078,188.201662 L346.046115,189.346635 C346.162829,189.924623 346.047419,190.425856 345.699881,190.85035 C345.352343,191.274844 344.913217,191.496392 344.38249,191.515002 C341.098264,191.533151 339.276895,190.55414 338.918329,188.577938 C338.765161,188.340775 338.683524,188.076855 338.673415,187.786169 C338.663306,187.495483 338.551648,187.062845 338.338438,186.48824 L338.310638,185.688858 L338.417472,184.593717 C338.272728,184.598792 338.172979,183.814068 338.118221,182.23952 C338.063464,180.664972 338.08012,179.7549 338.168192,179.509279 C338.332541,178.678902 338.398708,177.803474 338.366696,176.882969 C338.228692,177.081835 337.997565,177.380975 337.673309,177.780399 C337.024796,178.579247 336.610789,179.175836 336.431277,179.570184 L335.157309,182.525244 C334.180099,184.984846 333.437935,186.563062 332.930796,187.259939 C332.423657,187.956816 331.56616,188.302173 330.358278,188.296021 C329.150396,188.289869 328.396668,188.146528 328.097071,187.865993 C327.704349,187.685737 327.397328,187.538859 327.176001,187.425353 C326.954673,187.311847 326.851286,186.76978 326.865837,185.799135 L326.840564,185.072425 L327.574158,179.080405 C327.826578,178.004406 327.949417,177.369521 327.942677,177.175731 L328.171509,175.421474 L328.123491,174.040723 L327.435158,175.083496 L326.829305,176.414415 C326.643053,176.614973 326.554983,176.860591 326.565092,177.151277 C326.328907,177.305079 326.145185,177.578304 326.01392,177.97096 L323.391087,183.810947 C322.629843,185.535376 322.216143,186.835291 322.149975,187.710732 C321.877336,188.205359 321.546919,188.774764 321.158715,189.418964 C320.770511,190.063163 320.345975,190.356959 319.885093,190.30036 C319.42421,190.243761 319.094751,190.146175 318.896705,190.0076 C318.698659,189.869024 318.619549,189.677774 318.659372,189.433844 C318.088822,189.696384 317.623735,189.518669 317.264096,188.900692 L315.448836,186.708794 C315.25079,186.570219 315.145029,186.307144 315.13155,185.919563 C315.256075,185.333116 315.239227,184.848647 315.081005,184.466142 C314.922782,184.083636 314.863584,183.770423 314.903407,183.526493 C314.791748,183.093848 314.72244,182.489954 314.695483,181.714792 C314.66347,180.794287 314.567512,180.118568 314.407605,179.687614 C314.394126,179.300033 314.428894,178.910766 314.511911,178.519802 L314.486639,177.793091 C314.316009,175.664779 314.416945,174.400084 314.78945,173.998968 C314.484799,173.57309 314.474383,172.579083 314.758203,171.016916 L314.800247,170.142325 L314.800247,170.142325 Z M357.589015,159.183161 C358.334637,159.787603 358.763003,160.64569 358.874126,161.757448 C358.98525,162.869205 358.988083,163.645202 358.882627,164.08546 C358.777171,164.525718 358.624351,166.034762 358.42416,168.612638 C358.291211,168.956847 358.234846,169.41963 358.255064,170.001002 L357.756276,176.494105 C357.845573,179.06183 357.921927,180.562838 357.985338,180.997175 C358.04875,181.431512 358.157038,181.767256 358.310206,182.004419 C358.365193,182.196518 358.58736,182.334245 358.976713,182.417606 C359.366066,182.500967 359.628055,182.394768 359.76269,182.099007 C359.747526,181.662978 359.880474,181.318774 360.161537,181.066385 C360.158167,180.96949 360.448186,180.280236 361.031602,178.998604 C361.024863,178.804814 361.100029,178.535395 361.257103,178.19034 C361.414176,177.845285 361.524264,177.538263 361.587369,177.269263 C361.650474,177.000263 361.704465,176.816473 361.749343,176.717886 C361.93728,176.565775 362.159983,176.0244 362.417458,175.093744 C362.398925,174.560821 362.669032,173.99353 363.227789,173.391857 C363.222734,173.246514 363.443752,172.656692 363.890849,171.622373 L364.012846,170.963258 C364.817284,169.091795 365.182737,167.793572 365.109216,167.068549 L365.347237,163.494978 L365.969861,160.562757 C366.591417,158.988747 367.523506,158.010197 368.766157,157.627076 C369.336707,157.364536 370.124093,157.433938 371.128339,157.835284 C372.132584,158.23663 372.774539,158.638547 373.054224,159.041047 C373.333909,159.443547 373.480488,159.838581 373.493967,160.226162 L373.539458,161.534242 L373.494886,162.336161 L373.631359,166.2604 C373.73245,169.167258 373.857357,171.3699 374.006083,172.868393 C374.447207,177.218529 375.421264,180.919334 376.928283,183.970919 C377.657669,185.497558 377.409464,186.694658 376.183662,187.562255 C375.476792,188.072109 374.640891,188.34395 373.675933,188.377786 C372.035505,188.435308 370.879794,187.845256 370.208765,186.607611 C369.854182,186.134978 369.51783,185.491941 369.1997,184.678483 C368.88157,183.865024 368.670048,183.338875 368.565128,183.100021 C368.241944,182.141219 368.030422,181.61507 367.930557,181.521559 L367.303567,180.16111 C366.617528,182.659008 365.391821,185.612347 363.626408,189.021215 C363.262328,189.664569 362.605401,190.22117 361.655607,190.691035 C360.780406,190.527698 359.830319,190.29423 358.80532,189.990625 C358.169673,189.770381 357.120565,189.467626 355.657965,189.082352 C354.689637,189.019294 354.129319,188.881297 353.976994,188.668358 C353.824668,188.455419 353.711058,188.313885 353.636159,188.243751 C353.56126,188.173618 353.522968,188.114328 353.521283,188.06588 C353.368115,187.828717 353.122667,187.716059 352.784932,187.727902 C352.576777,187.298641 352.274658,186.94544 351.878566,186.668289 C351.876881,186.619841 351.796086,186.380144 351.636179,185.949191 C351.093658,185.628668 350.624052,184.626509 350.227347,182.942685 C349.977683,182.708906 349.742421,181.152837 349.521552,178.274433 C349.300684,175.396028 349.2138,173.592227 349.260899,172.862975 C349.307998,172.133722 349.323123,171.526867 349.306275,171.042391 C349.20304,170.851984 349.212,170.415116 349.333155,169.731774 C349.454311,169.048431 349.486552,168.586494 349.42988,168.345948 L349.613221,165.283611 L350.101211,162.64715 C350.075938,161.920436 350.291059,161.16105 350.74658,160.36897 C351.202102,159.576889 351.523826,159.104801 351.711763,158.952691 C351.891276,158.558342 352.555784,158.219752 353.70531,157.93691 C353.948234,157.976899 354.263104,158.002237 354.64993,158.012926 C355.036755,158.023616 355.400294,158.059374 355.740556,158.120203 C356.080819,158.181031 356.696966,158.535347 357.589015,159.183161 L357.589015,159.183161 L357.589015,159.183161 Z M395.135567,185.005948 L394.658374,183.785766 L393.692961,178.944718 C393.41971,178.032672 393.27045,177.213304 393.245177,176.48659 L393.423463,173.278911 C393.40493,172.745987 393.418944,172.45446 393.465507,172.404321 C392.886533,172.424623 392.042514,173.157555 390.933425,174.60314 C390.841984,174.751867 390.705667,174.999177 390.524469,175.345078 C388.610943,178.662126 387.540392,182.604396 387.312786,187.172008 C386.955445,188.009153 386.463171,188.438715 385.835948,188.460709 C384.523146,188.215703 383.794384,188.095739 383.649641,188.100815 L383.145568,188.19125 L382.204739,188.22424 C381.091667,188.166257 380.352797,187.755612 379.988104,186.992293 C379.786688,186.756822 379.668291,186.130396 379.632909,185.112995 L379.597527,184.0956 L379.241413,180.106304 L379.034177,174.147275 C379.010589,173.469008 378.932857,172.622879 378.80098,171.608863 C378.665732,170.497951 378.580534,168.742596 378.545381,166.342747 C378.510229,163.942897 378.441458,162.6599 378.339065,162.493717 C378.236672,162.327534 378.180422,162.099103 378.170313,161.808417 C378.160204,161.517731 378.222465,161.224512 378.3571,160.928751 C378.491735,160.63299 379.13212,160.295246 380.278275,159.915508 C380.892019,159.505933 381.415998,159.293536 381.850229,159.27831 C382.530754,159.399967 383.409312,159.660196 384.485929,160.059004 C385.214702,160.17897 385.600986,160.868761 385.644792,162.1284 C385.813737,164.208264 385.878028,165.709695 385.837669,166.632738 C385.797309,167.555781 385.874237,169.420564 386.068454,172.227143 C389.399548,165.222384 392.439808,160.968514 395.189325,159.465407 C395.42214,159.21471 395.779782,159.080904 396.262261,159.063986 C396.74474,159.047067 397.308006,159.269846 397.952077,159.732329 C398.596148,160.194811 399.041324,160.49449 399.287618,160.631374 C399.533912,160.768257 399.819757,161.000764 400.145163,161.3289 C400.470568,161.657037 400.731447,161.866166 400.927808,161.956294 C401.54048,162.904945 401.740285,165.17772 401.527229,168.774687 C401.497514,169.309303 401.465694,169.783352 401.431768,170.196849 C401.397841,170.610346 401.404466,171.495347 401.451641,172.851881 C401.498817,174.208415 401.555795,175.152284 401.622576,175.683516 C401.82629,177.374107 401.9332,178.364731 401.943309,178.655417 L402.401202,181.404229 C402.922433,182.501607 403.205636,183.352657 403.250821,183.957407 C403.296005,184.562156 403.751443,185.504179 404.617148,186.783504 C404.980156,187.498376 404.855633,188.084814 404.243574,188.542837 C403.295465,189.061149 402.783968,189.285236 402.709069,189.215102 C402.63417,189.144968 402.358434,189.203143 401.881852,189.389628 C401.40527,189.576113 400.538085,189.642901 399.28027,189.589993 C398.647993,189.466644 398.007301,189.101062 397.358175,188.493237 L396.234694,187.441236 C395.828493,186.873399 395.541231,186.252894 395.372899,185.579703 C395.123236,185.345924 395.044126,185.154674 395.135567,185.005948 L395.135567,185.005948 L395.135567,185.005948 Z M414.191314,145.847869 C415.88336,145.88555 416.998252,146.343642 417.536025,147.222159 C418.073797,148.100676 418.296692,148.953841 418.204714,149.781681 C418.112737,150.60952 417.496782,151.649744 416.35683,152.902385 C415.216878,154.155026 414.163597,154.774031 413.196954,154.75942 C412.907467,154.769571 412.335508,154.644109 411.481061,154.38303 C410.626614,154.121951 410.174431,153.968036 410.124498,153.921281 C410.069511,153.729182 409.919715,153.588917 409.675106,153.50048 C408.403812,153.059992 407.661265,151.849127 407.447442,149.867849 C407.440703,149.674059 407.58039,149.523643 407.866508,149.416596 C407.673516,149.423364 407.639283,149.133528 407.763809,148.547081 C408.064477,147.469391 408.787878,146.740687 409.934034,146.36095 C411.419609,146.017818 412.766317,145.84933 413.9742,145.855482 L414.191314,145.847869 Z M414.468855,164.246341 L413.660594,176.425554 C413.670703,176.716239 413.680391,176.994809 413.689657,177.261271 C413.698924,177.527733 413.731051,177.75701 413.786038,177.949109 C413.74453,178.144591 413.72883,178.387671 413.738939,178.678357 L413.920902,183.910675 C414.171179,185.551127 414.204876,186.520065 414.021993,186.817519 C413.735876,186.924565 413.403621,187.09386 413.02522,187.325409 C412.646819,187.556958 411.912734,187.631205 410.822945,187.548152 C409.733155,187.465099 408.94282,187.310915 408.451917,187.085595 L407.575878,186.898034 C407.093399,186.914953 406.772211,186.707938 406.612303,186.276985 C405.971602,185.911398 405.616181,185.414548 405.54603,184.786421 C405.392862,184.549258 405.549934,184.204208 406.017249,183.751261 C405.960577,183.510715 405.851867,183.162859 405.691118,182.707682 C405.530368,182.252505 405.467378,181.830286 405.502147,181.441013 C405.638467,181.193699 405.55346,180.832885 405.247124,180.35856 C405.228591,179.825636 405.279901,179.217512 405.401057,178.53417 C405.587309,178.333612 405.611126,177.62944 405.472509,176.421633 C405.793396,175.925314 405.938673,175.241136 405.908346,174.369078 C405.688396,173.600684 405.73381,172.822995 406.044588,172.035991 C406.355365,171.248986 406.521397,170.467068 406.542687,169.690214 C406.597061,168.47564 406.772895,167.281077 407.070194,166.106491 C407.053345,165.622015 407.255562,164.838829 407.67685,163.756908 C408.098138,162.674988 408.37778,162.034605 408.515785,161.835739 L409.633292,160.632398 L410.918287,160.078021 L410.990659,160.075483 C411.562894,159.861391 412.142703,159.865312 412.730101,160.087249 C414.147824,160.57111 415.00647,160.953302 415.306066,161.233836 C415.119814,161.434394 415.009305,161.729305 414.974536,162.118578 C414.939767,162.507851 414.903314,162.848671 414.865175,163.141049 C414.680608,163.390054 414.548502,163.758481 414.468855,164.246341 L414.468855,164.246341 L414.468855,164.246341 Z M429.738888,145.411827 C429.758264,145.968975 429.75141,146.466402 429.718326,146.904122 L429.784035,148.79357 L429.729354,149.304806 L429.782427,150.830898 C429.79759,151.266927 429.78863,151.703795 429.755546,152.141516 L432.270856,151.543997 C432.463848,151.53723 433.15922,151.391582 434.356993,151.107048 C435.554766,150.822514 436.648598,150.67502 437.638522,150.664561 C438.628446,150.654103 439.311067,150.836317 439.686405,151.211209 C440.061743,151.586101 440.262045,152.136897 440.287318,152.863611 C440.404032,153.441599 440.254542,154.00466 439.838845,154.55281 L439.564522,154.998987 C439.200442,155.642341 438.659921,156.073596 437.942942,156.292764 L435.422577,156.74494 L432.193661,157.658519 L430.264904,158.453749 C430.355273,159.663248 430.486039,160.992577 430.657204,162.441776 C430.828369,163.890976 430.92406,164.906246 430.944278,165.487618 L431.254901,168.168835 C432.030391,172.410232 433.002227,176.741693 434.170439,181.163347 C434.47509,181.589224 434.823236,182.571389 435.214886,184.109871 L435.846931,185.615662 C436.097207,187.256114 435.112659,188.115239 432.893256,188.193063 C432.507273,188.206598 431.53896,188.14354 429.988288,188.003888 C429.552372,187.970667 428.909996,187.556638 428.061139,186.761789 C428.057769,186.664894 427.781459,186.359294 427.232199,185.84498 L425.740886,182.550327 C425.639336,182.408368 425.502712,181.952352 425.331011,181.182265 C424.781751,180.667952 424.305406,179.472005 423.901961,177.59439 C423.898591,177.497495 423.84192,177.256952 423.731946,176.872755 L423.696564,175.85536 C423.347035,175.528069 423.072945,174.591814 422.874286,173.046565 C422.675627,171.501316 422.456217,170.05383 422.216049,168.704064 C422.15034,166.814606 421.942418,165.002923 421.592275,163.268959 L421.391933,161.675271 L421.369187,161.021231 C421.400587,160.535063 421.392162,160.292828 421.343915,160.29452 L420.475457,160.324973 C419.755108,160.447246 419.152019,160.468393 418.66617,160.388416 C416.543263,160.462857 415.050664,159.90887 414.188329,158.726441 C413.563863,157.438657 413.510255,156.591682 414.027503,156.185491 C414.544751,155.779299 415.833946,155.346045 417.895126,154.885716 C418.811836,154.853571 419.98294,154.497217 421.408474,153.816643 C421.366352,152.605452 421.415135,151.924658 421.554825,151.774239 C421.660817,150.654868 421.792769,149.934778 421.950685,149.613947 C422.108601,149.293116 422.205784,148.962293 422.242238,148.621468 C422.25005,147.457033 422.600339,145.722787 423.293117,143.418679 C423.543853,142.294233 423.783097,141.534001 424.010858,141.137961 C424.606068,140.195462 425.898633,139.859102 427.88859,140.12887 C428.713859,140.245452 429.3279,140.53921 429.730731,141.010151 C429.87379,140.956628 429.90607,141.537568 429.827571,142.752988 C429.749073,143.968409 429.719512,144.854679 429.738888,145.411827 L429.738888,145.411827 L429.738888,145.411827 Z M459.798055,167.463446 L459.559115,168.927019 L459.475026,170.6762 C459.488505,171.063781 459.432982,171.550788 459.308457,172.137235 C459.377536,174.123588 459.285024,175.630518 459.030919,176.658069 C459.074725,177.917707 458.933966,179.426329 458.608638,181.183978 C458.51444,182.642482 458.501574,183.661559 458.57004,184.241239 C458.345649,184.734174 458.240195,185.174426 458.253673,185.562007 C458.260413,185.755797 458.205733,186.267028 458.089632,187.095713 C457.97353,187.924398 457.775794,188.489151 457.496416,188.789987 C457.514949,189.322911 457.43446,189.786541 457.254948,190.180889 C456.983994,190.723964 456.797898,191.276182 456.696654,191.837559 C456.59541,192.398936 456.510709,192.741448 456.44255,192.865105 C456.37439,192.988762 456.341153,193.074813 456.342838,193.12326 L455.190868,195.419205 C455.192553,195.467653 454.962269,195.791017 454.500008,196.389307 C454.415306,196.731824 454.11939,197.251513 453.612252,197.94839 C453.618991,198.142181 452.819849,198.776528 451.214803,199.85145 C450.69924,200.306089 450.058855,200.643833 449.293628,200.864693 L448.652394,201.178217 C447.943839,201.639623 447.059691,201.913156 445.999922,201.998824 C443.887124,202.36395 442.318249,202.39471 441.29325,202.091105 L439.388846,201.503046 L439.391373,201.575717 C438.607613,201.263653 437.916147,200.827093 437.316954,200.266023 C436.236967,199.770319 435.518429,199.249823 435.161318,198.704518 C434.804207,198.159213 434.458167,197.237607 434.123189,195.939672 C434.009845,195.458579 434.121043,194.836229 434.456787,194.072602 C434.792531,193.308975 435.274849,192.940393 435.903757,192.966847 C436.0485,192.961772 436.661699,193.231306 437.74337,193.775457 C437.844921,193.917416 438.367522,194.359898 439.311189,195.102915 C440.416449,196.325334 441.548037,196.916232 442.705986,196.875628 C443.140217,196.860401 443.45256,196.81307 443.643024,196.733631 C443.833488,196.654192 444.38454,196.525731 445.296195,196.348243 C445.146397,196.207976 445.20123,196.048409 445.460697,195.869537 C445.720163,195.690665 445.921423,195.574469 446.064481,195.520946 C446.398847,195.412208 446.680748,195.184046 446.910194,194.836454 L447.82575,194.076752 C447.917191,193.928026 448.243128,193.577055 448.803569,193.023829 L449.491902,191.981056 C449.480108,191.641923 449.726092,191.075479 450.229861,190.281707 C450.176558,190.138055 450.286225,189.818921 450.558864,189.324294 C450.552124,189.130503 450.590262,188.83813 450.673279,188.447165 L451.223532,185.517482 L451.135997,185.083994 C451.357018,184.494163 451.455733,183.860124 451.432145,183.181857 L451.867982,181.129302 L451.575969,181.066782 L450.279256,183.367803 C450.280941,183.41625 450.212361,183.527794 450.073515,183.702436 C449.934668,183.877078 449.750525,184.138191 449.521079,184.485784 L448.21173,186.423449 L447.503179,186.884853 C446.285801,187.994688 444.900112,188.431326 443.34607,188.194779 C442.657121,187.830883 442.033967,187.622331 441.476589,187.569115 C440.919211,187.5159 440.3659,187.23214 439.81664,186.717826 C439.180993,186.497581 438.563582,186.10693 437.96439,185.545861 C437.757919,185.165047 437.650895,184.865637 437.643313,184.647623 C437.635731,184.429609 437.502056,184.058375 437.242283,183.53391 C436.672192,181.031551 436.355139,178.8599 436.291114,177.01889 C436.237812,176.875239 436.233446,176.402458 436.278018,175.600535 C436.32259,174.798611 436.340242,174.264426 436.330975,173.997964 C436.321709,173.731502 436.357741,173.37857 436.439073,172.939158 L436.650214,170.676204 C436.926222,170.278472 437.118062,169.544155 437.225739,168.473231 C437.424857,167.253582 437.902504,165.708894 438.658693,163.839123 L438.987696,162.88171 L439.60113,161.768805 C439.584282,161.284328 439.754525,160.623528 440.111866,159.786384 C440.469206,158.949239 440.693594,158.456311 440.785035,158.307585 C440.876476,158.158858 441.038602,157.959149 441.271417,157.708452 C441.504232,157.457754 441.736202,157.182837 441.967332,156.883693 C442.574336,156.280327 443.387799,156.057779 444.407744,156.216041 C445.427689,156.374303 446.197269,156.626227 446.716509,156.97182 C447.235748,157.317413 447.394121,158.051576 447.191633,159.174331 C446.788343,161.468287 446.587543,162.639472 446.589228,162.68792 L446.130645,164.086435 C446.152548,164.716254 446.073745,165.22833 445.894232,165.622678 C445.900972,165.816469 445.748419,166.985962 445.436569,169.131192 C445.120737,169.772854 444.967878,170.239021 444.977987,170.529707 C444.991466,170.917288 444.889802,171.466545 444.672993,172.177495 C444.456184,172.888445 444.306273,173.439394 444.223256,173.830358 C444.110525,174.755939 444.04183,175.558696 444.01717,176.238655 C443.99251,176.918614 443.822267,177.579414 443.506435,178.221076 C443.602931,178.217692 443.61304,178.508374 443.536762,179.093129 L443.562035,179.81984 C443.534005,180.402903 443.9559,180.727651 444.827731,180.794094 C445.699563,180.860536 446.521143,180.176896 447.292497,178.743154 C448.366203,176.280168 448.970365,174.900816 449.104999,174.605054 L449.646062,173.494686 L449.840431,172.833033 C450.169742,172.578952 450.449116,172.27812 450.678561,171.930528 L451.074881,170.825235 C451.069827,170.679892 451.931153,167.666571 453.658886,161.785183 L454.027406,159.880508 C453.988654,158.766212 454.188344,157.910356 454.626481,157.312912 C455.064617,156.715468 455.499952,156.384914 455.932498,156.32124 C456.656217,156.295862 457.801819,156.595233 459.369339,157.219361 C459.948314,157.199059 460.332913,157.840404 460.523147,159.143415 C460.553475,160.015472 460.402607,161.233412 460.070539,162.797271 C459.957807,163.722851 459.913236,164.524763 459.936824,165.20303 C459.812299,165.789477 459.766043,166.542941 459.798055,167.463446 L459.798055,167.463446 L459.798055,167.463446 Z" id="community" fill="#C1FF0F" transform="translate(343.433491, 171.168341) rotate(-1.000000) translate(-343.433491, -171.168341) "></path>
                <path d="M0.741707902,33.0778151 L0.741707902,0.36499658 L9.06819238,0.36499658 L9.06819238,33.0778151 L0.741707902,33.0778151 Z M29.0574385,23.8844637 L22.5103123,23.8844637 L22.5103123,33.0778151 L14.1838278,33.0778151 L14.1838278,0.36499658 L28.8065033,0.36499658 C33.1408594,0.36499658 36.4904299,1.3535191 38.8553154,3.33059379 C41.2202009,5.30766849 42.4026259,8.12115566 42.4026259,11.7711397 C42.4026259,14.2652955 41.8969586,16.3982229 40.8856089,18.169986 C39.8742591,19.9417491 38.4028814,21.3142746 36.4714315,22.2876037 L43.3379296,33.0778151 L33.9164554,33.0778151 L29.0574385,23.8844637 Z M28.8065033,17.3373376 C30.6162871,17.3373376 32.0192286,16.8848984 33.0153701,15.9800065 C34.0115116,15.0751146 34.5095749,13.7634213 34.5095749,12.0448871 C34.5095749,10.3567695 34.0115116,9.07929426 33.0153701,8.21242305 C32.0192286,7.34555184 30.6162871,6.91212273 28.8065033,6.91212273 L22.5103123,6.91212273 L22.5103123,17.3373376 L28.8065033,17.3373376 Z M46.5829576,33.0778151 L46.5829576,0.36499658 L54.9094421,0.36499658 L54.9094421,33.0778151 L46.5829576,33.0778151 Z M80.2225153,0.980928309 C82.4961512,1.63488378 84.4922063,2.52455405 86.2107405,3.6499658 L83.062645,10.1286551 C81.3441108,9.12490948 79.5077401,8.3074774 77.5534778,7.67633432 C75.5992156,7.04519125 73.9529454,6.72962444 72.6146179,6.72962444 C71.5196227,6.72962444 70.6451604,6.93113096 69.991205,7.33415003 C69.3372495,7.7371691 69.0102766,8.3264806 69.0102766,9.10210221 C69.0102766,10.1362644 69.5159439,10.9270824 70.5272937,11.47458 C71.5386434,12.0220776 73.1316855,12.6075871 75.3064677,13.231126 C77.5877077,13.8850815 79.4582965,14.5390272 80.9182901,15.1929826 C82.3782837,15.8469381 83.6405509,16.8278566 84.7051296,18.1357676 C85.7697083,19.4436785 86.3019896,21.184999 86.3019896,23.3597811 C86.3019896,25.4737302 85.7240842,27.2872888 84.5682559,28.8005114 C83.4124276,30.3137339 81.8459996,31.4505348 79.8689249,32.2109482 C77.8918502,32.9713615 75.6714766,33.3515625 73.2077373,33.3515625 C70.5006658,33.3515625 67.824051,32.8839153 65.1778126,31.9486069 C62.5315741,31.0132985 60.2275562,29.7396252 58.2656898,28.1275489 L61.4822222,21.7172965 C63.1399233,23.1468736 65.0903542,24.3216946 67.3335736,25.2417947 C69.576793,26.1618949 71.565244,26.6219381 73.2989865,26.6219381 C74.6373139,26.6219381 75.6828666,26.3824114 76.4356758,25.903351 C77.188485,25.4242906 77.564884,24.7133148 77.564884,23.7704023 C77.564884,22.7058236 77.0402067,21.8959955 75.9908362,21.3408938 C74.9414658,20.785792 73.3142057,20.2116886 71.109007,19.6185662 C68.8733918,18.9950272 67.0294171,18.3714976 65.5770276,17.7479587 C64.1246381,17.1244198 62.8775789,16.1739173 61.8358126,14.8964229 C60.7940463,13.6189285 60.273171,11.9384402 60.273171,9.85490766 C60.273171,7.8626247 60.8092544,6.12890828 61.8814372,4.6537064 C62.95362,3.17850451 64.4782259,2.03409959 66.4553006,1.22045731 C68.4323753,0.406815037 70.7135811,0 73.2989865,0 C75.6410596,0 77.9488794,0.326972833 80.2225153,0.980928309 Z M112.672993,33.0778151 L112.672993,20.3713716 L99.1224945,20.3713716 L99.1224945,33.0778151 L90.79601,33.0778151 L90.79601,0.36499658 L99.1224945,0.36499658 L99.1224945,13.8242455 L112.672993,13.8242455 L112.672993,0.36499658 L120.976665,0.36499658 L120.976665,33.0778151 L112.672993,33.0778151 Z" id="IRISH" fill="#C1FF0F"></path>
            </g>
        </g>
    </g>
</svg>